<svg id="kmg-logo" xmlns="http://www.w3.org/2000/svg" width="85.823" height="41.071" viewBox="0 0 85.823 41.071">
  <path id="Path_1" data-name="Path 1" d="M237.166,189.329v-8.4l-23.182,16.232,23.059,16.464v-7.611L225.4,197.282Z" transform="translate(-213.963 -180.929)" fill-rule="evenodd"/>
  <path id="Path_2" data-name="Path 2" d="M213.97,180.973h6.276v8.949l-6.276,4.032Z" transform="translate(-213.95 -180.968)" fill-rule="evenodd"/>
  <path id="Path_3" data-name="Path 3" d="M213.97,369.14h6.276v-8.662l-6.276-4.434Z" transform="translate(-213.95 -336.431)" fill-rule="evenodd"/>
  <path id="Path_4" data-name="Path 4" d="M437.97,242.951h6.156V224.832l-6.156-10.893Z" transform="translate(-412.862 -210.242)" fill-rule="evenodd"/>
  <path id="Path_5" data-name="Path 5" d="M645.127,242.947h-6.156V224.829l6.156-10.894Z" transform="translate(-591.351 -210.238)" fill-rule="evenodd"/>
  <path id="Path_6" data-name="Path 6" d="M445.3,180.933h-7.366L452.386,204.1,466.6,180.948H459.93l-7.437,11.8Z" transform="translate(-412.827 -180.933)" fill-rule="evenodd"/>
  <path id="Path_7" data-name="Path 7" d="M730.407,212.358a17.91,17.91,0,0,1-6.726,1.33,16.183,16.183,0,1,1,0-32.364,17.816,17.816,0,0,1,7.254,1.355,18.645,18.645,0,0,1,5.2,3.445c-.011,0-4.4,5.059-4.4,5.048a11.4,11.4,0,0,0-8.049-3.519c-5.412,0-9.168,4.442-9.168,9.854s3.548,9.855,8.96,9.855a11.649,11.649,0,0,0,6.929-2.428C730.4,204.939,730.408,212.363,730.407,212.358Z" transform="translate(-652.205 -181.281)" fill-rule="evenodd"/>
  <path id="Path_8" data-name="Path 8" d="M0,5.716V0H5.714V.005L0,5.716Z" transform="translate(80.109 16.438)" fill="#eabd5a"/>
  <path id="Path_9" data-name="Path 9" d="M5.711,10.529H0V0L5.711,5.711v4.818Z" transform="translate(80.109 22.157)" fill="#456abb"/>
  <path id="Path_10" data-name="Path 10" d="M9.634,5.716H0V0H3.949L9.634,5.684v.032Z" transform="translate(70.482 16.438)" fill="#d57f2e"/>
  <path id="Path_11" data-name="Path 11" d="M-485.993-51.143h-.979v-4.824h.979v2.121l.653-.071.795-2.05h1.114l-1.05,2.419,1.078,2.405h-1.128l-.809-1.923-.653.071Zm3.363,0v-4.824h3.122v.851h-2.143v1.128h1.717v.837h-1.717v1.156h2.143v.852Zm6.009,0h-.979v-1.951l-1.49-2.873H-478l.887,1.923.887-1.923h1.085l-1.476,2.873Zm3.838,0v-4.824h1.667l.851,3.519.851-3.519h1.667v4.824h-.979v-3.732h-.106l-.944,3.519h-.979l-.944-3.519h-.106v3.732Zm5.818,0,1.085-4.824h1.859l1.085,4.824h-.979l-.192-.873h-1.689l-.192.873Zm1.844-4.016-.489,2.292h1.32l-.489-2.292Zm2.966,4.016v-4.824h1.653l1.164,3.973h.071v-3.973h.979v4.824h-1.61l-1.206-3.973h-.071v3.973Zm4.647,0,1.085-4.824h1.859l1.085,4.824h-.979l-.192-.873h-1.689l-.191.873Zm1.845-4.016-.49,2.292h1.32l-.49-2.292Zm4.9,2.284v-.851h1.4v2.5a10.836,10.836,0,0,1-1.646.163,1.768,1.768,0,0,1-1.55-.6,3.4,3.4,0,0,1-.422-1.916,3.183,3.183,0,0,1,.44-1.894,1.76,1.76,0,0,1,1.5-.582,7.5,7.5,0,0,1,1.426.149l.255.05-.028.759a13.457,13.457,0,0,0-1.394-.092,1.629,1.629,0,0,0-.763.128.77.77,0,0,0-.323.472,4.639,4.639,0,0,0-.1,1.178,2.374,2.374,0,0,0,.206,1.167.927.927,0,0,0,.851.333l.589-.028v-.936Zm2.462,1.731v-4.824h3.122v.851h-2.143v1.128h1.717v.837h-1.717v1.156h2.143v.852Zm4.065,0v-4.824h1.667l.851,3.519.851-3.519h1.667v4.824h-.979v-3.732h-.106l-.944,3.519h-.979l-.944-3.519h-.106v3.732Zm6.222,0v-4.824h3.122v.851h-2.142v1.128h1.717v.837h-1.717v1.156h2.142v.852Zm4.065,0v-4.824h1.653l1.164,3.973h.071v-3.973h.979v4.824h-1.611l-1.206-3.973h-.071v3.973Zm4.618-3.959v-.865h3.547v.865h-1.277v3.959h-.979V-55.1Zm8,2.228v-.851h1.4v2.5a10.838,10.838,0,0,1-1.646.163,1.767,1.767,0,0,1-1.55-.6,3.4,3.4,0,0,1-.422-1.916,3.183,3.183,0,0,1,.44-1.894,1.76,1.76,0,0,1,1.5-.582,7.5,7.5,0,0,1,1.426.149l.255.05-.028.759a13.46,13.46,0,0,0-1.394-.092,1.63,1.63,0,0,0-.763.128.769.769,0,0,0-.323.472,4.632,4.632,0,0,0-.1,1.178,2.374,2.374,0,0,0,.206,1.167.927.927,0,0,0,.851.333l.589-.028v-.936Zm3.441.114v1.617h-.979v-4.824h1.873q1.7,0,1.7,1.589A1.526,1.526,0,0,1-416-52.987l.688,1.845h-1.071l-.561-1.618Zm.908-.837a.623.623,0,0,0,.518-.213.87.87,0,0,0,.17-.561.808.808,0,0,0-.181-.553.657.657,0,0,0-.521-.206h-.894V-53.6Zm3.65,1.316a.819.819,0,0,0,.784.373.819.819,0,0,0,.784-.373,2.714,2.714,0,0,0,.209-1.249,2.844,2.844,0,0,0-.213-1.274.805.805,0,0,0-.78-.4.805.805,0,0,0-.78.4,2.84,2.84,0,0,0-.213,1.273A2.715,2.715,0,0,0-413.327-52.281Zm2.334.624a1.819,1.819,0,0,1-1.55.6,1.819,1.819,0,0,1-1.55-.6,3.137,3.137,0,0,1-.45-1.877,3.241,3.241,0,0,1,.45-1.9,1.789,1.789,0,0,1,1.55-.621,1.789,1.789,0,0,1,1.55.621,3.24,3.24,0,0,1,.451,1.9A3.135,3.135,0,0,1-410.993-51.657Zm2.359-1.1a.753.753,0,0,0,.858.844.752.752,0,0,0,.858-.844v-3.214h.979v3.193a1.676,1.676,0,0,1-.458,1.3,2,2,0,0,1-1.38.415,2,2,0,0,1-1.38-.415,1.676,1.676,0,0,1-.458-1.3v-3.193h.979Zm5.612.206h-.795v1.4h-.979v-4.824h1.773a1.5,1.5,0,0,1,1.717,1.674A1.787,1.787,0,0,1-401.742-53,1.7,1.7,0,0,1-403.023-52.547Zm-.794-.837h.788q.731,0,.731-.908a.944.944,0,0,0-.177-.642.712.712,0,0,0-.553-.2h-.788Z" transform="translate(486.972 92.128)"/>
  <path id="Path_12" data-name="Path 12" d="M5.711,5.711H0L5.711,0Z" transform="translate(80.109 16.443)" fill="#6aa163"/>
  <path id="Path_13" data-name="Path 13" d="M5.711,5.711H0L5.711,0Z" transform="translate(80.109 27.868) rotate(-90)" fill="#5b86e3"/>
  <path id="Path_14" data-name="Path 14" d="M5.684,5.684h0L0,0H5.684Z" transform="translate(74.431 16.438)" fill="#ed9f39"/>
</svg>
