<?xml version="1.0" standalone="no"?>
<!DOCTYPE svg PUBLIC "-//W3C//DTD SVG 20010904//EN"
 "http://www.w3.org/TR/2001/REC-SVG-20010904/DTD/svg10.dtd">
<svg version="1.0" xmlns="http://www.w3.org/2000/svg"
viewBox="0 0 563.000000 168.000000"
 preserveAspectRatio="xMidYMid meet">

<g transform="translate(0.000000,168.000000) scale(0.100000,-0.100000)"
fill="#000000" stroke="none">
<path d="M0 840 l0 -840 2815 0 2815 0 0 840 0 840 -2815 0 -2815 0 0 -840z
m468 625 c1 -1 3 -275 5 -609 1 -399 -1 -606 -8 -606 -6 0 -5 -3 1 -8 6 -4 10
-18 9 -32 -2 -25 -3 -25 -102 -26 -55 -1 -104 -3 -109 -6 -5 -3 -31 -5 -59 -4
l-50 1 -3 186 c-3 181 -3 186 17 192 12 3 21 11 20 19 0 10 -2 10 -6 1 -2 -7
-11 -13 -18 -13 -11 0 -14 81 -15 443 0 244 2 451 6 460 5 14 23 16 157 10 84
-3 153 -7 155 -8z m517 -32 c82 -33 144 -75 173 -118 74 -110 68 -289 -12
-364 -26 -25 -47 -12 -25 15 6 8 9 17 5 21 -3 3 -6 1 -6 -5 0 -7 -6 -12 -13
-12 -8 0 -13 -14 -14 -36 -1 -22 -8 -41 -20 -50 -20 -16 -24 -10 46 -61 88
-66 124 -143 124 -268 0 -44 -5 -81 -11 -87 -7 -7 -12 -20 -12 -29 0 -10 -12
-19 -32 -24 -29 -7 -30 -9 -10 -12 31 -6 27 -47 -5 -51 -13 -2 -23 1 -23 7 0
6 -10 11 -22 11 -22 -1 -21 -2 5 -16 15 -8 27 -20 27 -27 0 -18 -69 -71 -124
-95 -55 -25 -86 -28 -104 -10 -10 10 -12 7 -10 -12 3 -23 -1 -25 -42 -27 -30
-1 -49 3 -56 13 -10 13 -14 13 -27 -1 -13 -12 -43 -15 -156 -15 l-141 0 0 125
0 125 120 2 c66 1 134 2 150 3 46 3 110 27 110 41 0 7 6 17 13 21 18 12 38 77
33 107 -8 46 -39 98 -65 109 -14 6 -100 14 -191 17 l-165 5 -3 121 -3 122 167
4 166 4 34 37 c46 49 47 98 3 145 -16 17 -31 33 -32 33 -1 1 -76 5 -167 8
l-165 6 -3 114 c-1 63 0 121 3 129 5 13 37 14 208 9 192 -5 206 -7 272 -34z
m1031 12 c15 -3 25 -17 32 -42 21 -76 140 -412 160 -454 12 -24 23 -57 26 -72
3 -16 10 -34 15 -41 6 -7 12 -21 14 -32 4 -21 12 -43 33 -94 9 -20 16 -42 18
-50 2 -8 6 -22 9 -30 7 -16 135 -384 144 -413 5 -16 -6 -17 -168 -15 -107 2
-174 7 -175 13 -1 19 -16 70 -35 123 -10 29 -19 60 -19 70 -1 42 -10 44 -188
43 -94 -1 -173 2 -175 7 -5 8 54 219 67 240 5 9 27 13 60 12 28 -1 72 -1 98
-1 l47 1 -15 48 c-28 86 -64 216 -81 290 l-17 73 -22 -88 c-12 -48 -29 -108
-38 -132 -8 -25 -13 -48 -10 -53 3 -4 1 -8 -5 -8 -6 0 -8 -7 -5 -15 4 -8 1
-15 -5 -15 -6 0 -11 -6 -11 -14 0 -14 -56 -208 -113 -391 -17 -55 -30 -103
-29 -107 1 -3 -5 -29 -14 -57 l-15 -51 -134 0 -135 0 0 110 c0 108 1 111 67
307 36 109 75 223 85 253 10 30 23 64 28 75 10 20 127 353 158 450 8 28 19 55
23 60 7 10 278 10 325 0z m795 -367 c0 -196 -1 -361 -2 -365 -1 -4 -1 -12 0
-18 5 -26 5 -415 1 -415 -4 0 -4 -16 -2 -35 l4 -34 -145 0 -145 -1 -1 606 c-1
333 1 609 4 615 4 6 63 8 147 7 l140 -3 -1 -357z m1351 329 c8 -13 53 -142 49
-142 -1 0 3 -13 9 -30 7 -16 16 -43 20 -60 4 -16 27 -82 50 -145 22 -63 48
-137 57 -165 8 -27 37 -113 64 -190 26 -77 51 -153 55 -170 4 -16 27 -84 51
-149 23 -66 43 -121 43 -123 0 -2 -71 -2 -157 -1 l-157 3 -7 40 c-4 22 -18 74
-31 115 l-24 75 -163 3 -163 3 7 22 c3 12 15 51 25 87 10 36 23 79 27 95 l9
30 92 3 91 3 -6 32 c-3 18 -16 66 -29 107 -13 41 -33 116 -46 165 -19 79 -23
86 -29 60 -4 -16 -17 -66 -29 -110 -12 -44 -23 -95 -26 -114 -2 -19 -7 -38
-10 -42 -3 -5 -7 -17 -9 -26 -15 -64 -80 -280 -118 -393 -14 -41 -27 -91 -30
-111 -2 -20 -8 -42 -11 -48 -5 -7 -50 -11 -127 -11 l-119 0 0 104 c0 94 8 138
37 206 3 8 7 20 8 25 2 6 8 30 16 55 7 25 13 50 15 55 7 36 78 242 85 249 5 6
9 16 9 23 0 7 21 71 46 141 26 70 47 136 49 147 5 41 58 180 73 192 20 17 293
8 304 -10z m816 -13 c10 -3 12 -93 9 -441 -3 -480 -2 -468 -67 -567 -14 -21
-31 -48 -39 -60 -8 -13 -40 -40 -73 -60 -53 -35 -65 -38 -131 -40 l-72 -1 -3
137 -3 138 28 0 c42 0 79 40 92 100 7 32 11 194 11 430 l0 380 118 -6 c64 -3
123 -7 130 -10z m340 -328 c2 -265 -1 -341 -10 -348 -10 -6 -10 -8 0 -8 10 0
12 -50 11 -235 l-1 -234 -126 2 -125 2 -2 35 c-1 19 2 43 6 52 5 9 5 19 0 22
-10 6 -15 1014 -5 1040 6 14 22 16 128 14 l121 -3 3 -339z m-2394 -627 c-5 -8
-1 -8 14 0 13 7 96 11 226 11 171 0 206 -2 206 -14 0 -8 14 -17 30 -21 21 -5
30 -13 30 -26 0 -10 -7 -19 -15 -19 -19 0 -20 -19 -1 -26 18 -7 19 -105 2
-116 -17 -12 -86 -9 -86 3 0 6 -9 4 -22 -5 -17 -12 -62 -15 -240 -16 l-218 0
0 120 0 120 41 0 c27 0 38 -4 33 -11z"/>
<path d="M338 1333 c7 -3 16 -2 19 1 4 3 -2 6 -13 5 -11 0 -14 -3 -6 -6z"/>
<path d="M418 753 c7 -3 16 -2 19 1 4 3 -2 6 -13 5 -11 0 -14 -3 -6 -6z"/>
<path d="M1035 1150 c-3 -5 -1 -10 4 -10 6 0 11 5 11 10 0 6 -2 10 -4 10 -3 0
-8 -4 -11 -10z"/>
<path d="M1116 1077 c3 -10 9 -15 12 -12 3 3 0 11 -7 18 -10 9 -11 8 -5 -6z"/>
<path d="M1040 771 c0 -5 5 -13 10 -16 6 -3 10 -2 10 4 0 5 -4 13 -10 16 -5 3
-10 2 -10 -4z"/>
<path d="M1148 698 c-16 -19 -15 -48 2 -48 6 0 21 61 16 67 -1 1 -9 -8 -18
-19z"/>
<path d="M1113 623 c-17 -6 -16 -23 1 -23 8 0 16 7 20 15 6 15 1 17 -21 8z"/>
<path d="M1059 573 c0 -5 -2 -15 -4 -24 -1 -9 1 -23 6 -30 6 -10 9 -2 9 24 0
20 -2 37 -5 37 -3 0 -5 -3 -6 -7z"/>
<path d="M1030 478 c1 -14 24 -48 32 -48 3 0 8 9 11 20 3 13 0 20 -9 20 -8 0
-14 5 -14 10 0 6 -4 10 -10 10 -5 0 -10 -6 -10 -12z"/>
<path d="M900 426 c0 -3 9 -10 20 -16 11 -6 20 -8 20 -6 0 3 -9 10 -20 16 -11
6 -20 8 -20 6z"/>
<path d="M630 349 c0 -5 5 -7 10 -4 6 3 10 8 10 11 0 2 -4 4 -10 4 -5 0 -10
-5 -10 -11z"/>
<path d="M2758 753 c7 -3 16 -2 19 1 4 3 -2 6 -13 5 -11 0 -14 -3 -6 -6z"/>
<path d="M2600 630 c0 -5 7 -7 15 -4 8 4 15 8 15 10 0 2 -7 4 -15 4 -8 0 -15
-4 -15 -10z"/>
<path d="M4800 1386 c0 -2 7 -7 16 -10 8 -3 12 -2 9 4 -6 10 -25 14 -25 6z"/>
<path d="M4948 1263 c7 -3 16 -2 19 1 4 3 -2 6 -13 5 -11 0 -14 -3 -6 -6z"/>
<path d="M4660 369 c0 -5 5 -7 10 -4 6 3 10 8 10 11 0 2 -4 4 -10 4 -5 0 -10
-5 -10 -11z"/>
<path d="M5275 760 c-3 -5 1 -10 10 -10 9 0 13 5 10 10 -3 6 -8 10 -10 10 -2
0 -7 -4 -10 -10z"/>
<path d="M3340 341 c0 -19 -4 -30 -10 -26 -12 7 -12 -22 0 -50 7 -17 9 -17 9
-2 1 9 7 17 14 17 9 0 8 3 -2 9 -8 5 -9 11 -3 15 6 3 9 18 8 31 -4 38 -16 43
-16 6z"/>
</g>
</svg>
