<?xml version="1.0" standalone="no"?>
<!DOCTYPE svg PUBLIC "-//W3C//DTD SVG 20010904//EN"
 "http://www.w3.org/TR/2001/REC-SVG-20010904/DTD/svg10.dtd">
<svg version="1.0" xmlns="http://www.w3.org/2000/svg"
viewBox="0 0 4724.000000 1028.000000"
 preserveAspectRatio="xMidYMid meet">
<g transform="translate(0.000000,1028.000000) scale(0.100000,-0.100000)"
fill="#000000" stroke="none">
<path d="M17497 6935 l-17 -35 -183 0 c-179 0 -184 -1 -205 -23 -12 -13 -22
-35 -22 -50 0 -15 -4 -27 -10 -27 -5 0 -10 6 -10 13 0 18 -42 57 -62 57 -9 0
-21 7 -28 15 -11 13 -56 15 -294 15 l-282 0 -27 -28 c-26 -27 -27 -33 -27
-128 0 -62 4 -104 12 -112 8 -8 8 -15 0 -25 -17 -20 -17 -2414 0 -2434 8 -10
8 -20 -1 -39 -21 -47 -14 -87 22 -122 l34 -33 199 5 c238 7 215 6 339 1 91 -4
101 -3 122 17 l23 21 0 480 c0 476 0 480 20 462 18 -16 42 -17 327 -12 253 3
328 8 423 25 137 25 233 53 316 94 69 34 174 112 174 131 1 6 23 30 50 51 28
22 50 48 50 58 0 10 18 44 39 76 96 140 131 267 138 497 8 255 -27 404 -141
605 -53 94 -53 95 -35 116 30 33 24 68 -18 103 -45 37 -96 42 -113 11 -10 -18
-13 -18 -71 20 -114 74 -295 130 -479 150 -52 5 -103 10 -112 10 -10 0 -21 14
-28 35 -11 33 -14 35 -59 35 -44 0 -48 -2 -64 -35z m-278 -674 c72 1 96 -2
110 -15 23 -21 50 -20 75 3 26 24 140 35 156 16 6 -7 35 -15 65 -17 147 -12
256 -166 242 -345 -10 -136 -75 -226 -205 -285 l-64 -29 -241 1 c-212 0 -242
-1 -258 -16 -19 -17 -19 -7 -19 356 l0 373 23 -21 c21 -20 34 -22 116 -21z"/>
<path d="M8377 6862 l-27 -28 0 -270 0 -270 28 -27 28 -27 300 0 c359 0 380
-4 455 -82 54 -56 58 -74 38 -170 -9 -43 -20 -62 -58 -98 -43 -42 -53 -47
-121 -57 -42 -7 -192 -12 -344 -12 l-269 0 -29 -28 -28 -27 0 -261 c0 -258 0
-262 23 -282 21 -20 37 -21 332 -26 332 -6 403 -15 431 -56 8 -11 21 -21 28
-21 20 0 53 -41 75 -93 28 -64 28 -149 1 -202 -11 -22 -20 -46 -20 -55 0 -8
-16 -26 -35 -40 -19 -14 -35 -30 -35 -36 0 -10 -70 -39 -150 -62 -14 -4 -155
-9 -315 -11 -277 -3 -291 -4 -312 -24 -23 -20 -23 -23 -23 -291 l0 -270 27
-28 27 -28 300 0 c259 0 302 2 317 16 14 12 22 13 39 4 31 -17 280 -2 280 16
0 8 11 14 25 14 25 0 149 43 169 59 6 4 33 15 59 24 27 9 70 32 97 52 63 46
172 165 166 181 -2 6 11 27 30 45 23 22 34 42 34 61 0 15 4 28 8 28 11 0 43
67 52 110 4 19 15 62 24 96 24 91 24 263 0 379 -10 48 -100 231 -140 286 -20
27 -55 60 -78 74 -23 13 -52 38 -64 55 -12 16 -36 37 -53 46 -26 13 -29 17
-16 27 8 7 18 25 21 41 8 34 32 55 63 56 21 0 113 92 113 113 0 6 7 18 15 27
9 10 30 57 47 106 30 84 32 97 32 229 1 132 -1 145 -31 228 -44 123 -86 189
-183 288 -71 72 -100 94 -180 133 -190 93 -356 116 -851 116 l-295 0 -27 -28z"/>
<path d="M10685 6870 c-18 -19 -20 -40 -22 -173 l-3 -152 46 -46 46 -46 -42
-29 c-39 -28 -41 -31 -37 -72 3 -23 1 -44 -3 -47 -4 -2 -8 -83 -9 -179 -1
-144 2 -176 14 -186 14 -12 14 -15 0 -30 -14 -15 -15 -111 -12 -856 3 -475 8
-862 14 -892 7 -41 6 -55 -4 -63 -26 -22 -15 -73 22 -109 l35 -34 31 30 c27
26 36 29 85 26 46 -3 60 0 79 18 22 20 26 21 86 9 35 -6 72 -19 81 -27 12 -10
30 -13 56 -10 24 4 45 0 57 -8 10 -8 40 -14 65 -14 41 0 50 5 89 44 l44 44 24
-29 c14 -16 33 -29 43 -29 10 0 23 -7 30 -15 18 -22 172 -21 190 0 12 14 15
14 30 0 13 -12 50 -15 206 -14 104 1 197 6 208 11 12 7 22 6 29 -1 8 -8 112
-11 327 -11 l317 0 21 23 c22 23 22 29 22 297 -1 336 5 320 -131 320 -63 0
-90 -4 -98 -14 -11 -13 -17 -12 -47 0 -25 10 -71 15 -152 14 -64 0 -281 0
-482 0 -358 -1 -365 -1 -387 -22 -13 -12 -23 -30 -23 -40 0 -11 -7 -18 -20
-18 -11 0 -20 -7 -20 -15 0 -8 -8 -15 -18 -15 -11 0 -27 -9 -38 -21 -19 -21
-19 -16 -24 312 -3 184 -3 364 -1 401 l3 66 30 -34 c28 -32 34 -34 92 -34 36
0 67 5 74 12 10 10 17 10 32 0 16 -10 142 -12 544 -11 l524 1 11 77 c5 42 10
165 10 273 l0 197 -47 41 -47 40 -530 -2 c-291 -1 -535 -6 -542 -10 -7 -6 -28
-4 -53 3 -39 12 -42 11 -70 -16 l-30 -29 0 258 0 257 22 -15 c20 -14 101 -16
683 -16 l660 1 28 24 27 24 0 263 0 263 -34 28 -35 27 -650 0 -649 0 -30 -25
-29 -24 -23 24 c-23 25 -25 25 -205 25 -124 0 -185 -4 -193 -12 -7 -7 -15 -8
-24 -1 -7 5 -67 10 -134 12 -112 2 -121 0 -139 -19z"/>
<path d="M13510 6875 c-19 -23 -3 -209 20 -230 16 -15 17 -22 5 -70 -7 -30
-17 -60 -23 -67 -9 -12 -16 -49 -28 -164 -6 -51 -6 -51 43 -93 l48 -42 125 2
c322 4 534 -1 522 -13 -7 -7 -12 -26 -12 -43 0 -17 5 -36 12 -43 9 -9 9 -15 0
-24 -15 -15 -16 -112 -1 -139 7 -15 7 -24 0 -33 -16 -19 -14 -792 2 -817 9
-15 9 -24 -1 -39 -9 -15 -12 -139 -12 -517 l0 -497 27 -28 27 -28 326 0 327 0
21 23 22 23 0 994 c0 724 -4 997 -12 1007 -8 10 -8 17 0 25 7 7 12 37 12 68 0
46 -4 61 -23 78 -13 12 -33 22 -46 22 -12 0 -19 4 -16 10 8 12 54 2 76 -16 12
-11 80 -14 340 -14 l325 0 27 28 27 28 0 297 0 296 -37 12 c-21 6 -94 13 -161
16 -104 4 -127 2 -141 -12 -16 -14 -20 -14 -31 -1 -10 14 -94 16 -639 16 -363
0 -632 -4 -641 -10 -8 -5 -19 -5 -25 0 -13 11 -275 6 -338 -7 -37 -8 -50 -7
-58 4 -15 17 -73 17 -89 -2z"/>
<path d="M19257 6862 l-27 -28 0 -516 c0 -350 3 -519 10 -523 7 -5 8 -11 1
-19 -6 -7 -10 -250 -10 -661 0 -549 2 -653 14 -671 12 -19 12 -24 0 -34 -22
-18 -21 -237 0 -267 10 -14 12 -24 5 -28 -5 -3 -10 -21 -10 -39 0 -23 9 -41
33 -64 32 -31 35 -32 127 -32 82 0 96 3 117 22 13 12 23 17 23 10 0 -19 100
-32 235 -31 125 1 131 2 158 27 32 30 37 85 10 114 -15 17 -15 20 7 43 l24 25
-24 43 c-12 23 -30 50 -38 60 -14 15 -14 19 0 30 25 19 33 105 13 127 -16 17
-14 21 19 58 l36 39 0 248 c0 236 1 247 18 233 14 -13 60 -17 267 -20 l250 -5
55 -31 c30 -18 58 -32 61 -32 3 0 16 -25 28 -55 19 -46 27 -55 49 -55 24 0 24
-1 9 -18 -20 -22 -22 -63 -5 -80 7 -7 25 -12 40 -12 17 0 31 -7 35 -15 9 -26
59 -45 116 -45 44 0 58 4 77 25 18 20 22 31 17 61 -8 45 4 63 38 56 19 -3 25
-10 25 -32 0 -15 9 -35 20 -45 14 -12 20 -31 20 -58 0 -38 -1 -39 -18 -24 -12
11 -36 17 -69 17 -48 0 -54 -3 -92 -46 -23 -26 -41 -53 -41 -60 0 -17 -24 -18
-50 -2 -17 11 -24 9 -50 -18 -31 -30 -31 -31 -21 -94 6 -35 18 -97 27 -137
l16 -73 37 0 c29 0 39 -5 53 -29 14 -26 14 -32 2 -42 -8 -7 -14 -30 -14 -58 0
-40 5 -52 33 -79 38 -37 88 -43 119 -15 17 15 20 15 41 -5 34 -32 86 -29 120
6 32 34 34 49 6 78 l-21 22 30 16 c16 8 32 12 36 9 3 -4 6 -26 6 -50 0 -36 6
-50 29 -74 31 -30 59 -37 78 -18 8 8 13 8 17 0 4 -6 37 -11 75 -11 58 0 71 3
89 23 12 13 22 30 22 39 0 9 12 18 30 22 28 5 30 9 30 49 0 31 -6 49 -20 62
-12 10 -18 25 -15 33 5 13 -20 103 -77 277 -11 33 -23 98 -28 145 -9 93 -38
279 -45 290 -2 4 -11 42 -20 85 -18 85 -47 153 -70 161 -8 3 -18 22 -21 42 -5
26 -25 55 -73 104 l-66 67 40 18 c57 25 184 156 223 230 33 63 62 137 88 228
24 82 10 485 -16 485 -4 0 -11 15 -14 34 -9 49 -108 202 -174 269 -108 110
-179 140 -233 98 -30 -22 -77 -32 -86 -17 -4 6 -6 23 -4 39 4 41 -42 82 -109
96 -84 18 -367 30 -642 28 -225 -2 -248 -4 -267 -21 -21 -19 -22 -19 -44 2
-23 21 -29 22 -344 22 l-320 -1 -26 -27z m869 -621 c181 1 404 -10 498 -24 85
-14 92 -16 123 -53 56 -66 73 -111 73 -197 0 -42 -4 -79 -10 -82 -5 -3 -10
-21 -10 -39 0 -71 -97 -155 -216 -187 -66 -17 -119 -22 -324 -26 -202 -4 -248
-8 -262 -21 -17 -14 -18 2 -18 323 0 327 1 338 18 322 15 -14 39 -17 128 -16z"/>
<path d="M23376 6879 c-167 -14 -310 -56 -466 -134 -195 -99 -403 -284 -497
-443 -169 -286 -241 -565 -230 -887 7 -182 21 -315 37 -345 7 -13 14 -45 16
-73 2 -28 7 -53 11 -56 5 -3 17 -33 27 -66 24 -81 100 -238 144 -300 109 -152
153 -204 236 -277 195 -172 344 -247 417 -208 17 10 19 7 19 -19 0 -23 5 -32
23 -36 163 -39 202 -44 231 -30 26 14 32 13 61 -5 47 -29 106 -17 140 29 14
19 25 28 25 20 0 -8 13 -28 30 -44 29 -28 30 -28 117 -21 297 24 548 136 802
357 66 57 101 98 163 193 159 244 241 457 255 666 5 72 3 88 -11 99 -15 12
-15 15 0 25 26 19 20 229 -8 263 -6 7 -5 14 3 19 8 5 10 32 5 96 -5 71 -11 96
-31 125 -16 24 -22 45 -19 60 12 47 -13 125 -99 303 -81 166 -227 336 -375
438 -227 155 -433 232 -672 252 -110 9 -115 8 -137 -12 l-23 -21 -23 21 c-25
24 -29 24 -171 11z m217 -604 c12 -8 52 -21 89 -30 122 -28 225 -84 310 -170
47 -46 158 -221 158 -248 0 -8 9 -22 20 -32 21 -19 27 -64 10 -81 -6 -6 -6
-22 0 -44 8 -29 24 -230 22 -290 -1 -49 -27 -236 -34 -241 -4 -3 -11 -27 -14
-55 -3 -27 -14 -60 -24 -74 -11 -16 -16 -37 -13 -56 4 -26 0 -35 -27 -54 -18
-13 -37 -35 -44 -49 -13 -32 -112 -123 -158 -147 -18 -9 -46 -26 -63 -38 -16
-11 -36 -21 -45 -23 -8 -1 -41 -7 -72 -14 l-58 -12 0 -38 c0 -33 -3 -39 -22
-39 -35 0 -68 -38 -68 -80 0 -20 5 -41 12 -48 8 -8 8 -15 1 -24 -6 -7 -13 -24
-16 -38 -2 -14 -5 12 -6 58 -1 75 -3 85 -26 106 -19 17 -25 34 -25 63 l0 39
-97 23 c-83 20 -110 32 -181 80 -78 54 -85 62 -152 174 -39 64 -70 121 -70
127 0 5 -7 30 -16 55 -8 25 -22 90 -30 143 -8 53 -21 121 -29 150 -14 47 -14
57 0 98 8 24 15 71 15 103 0 72 38 225 78 312 51 113 105 183 194 251 68 52
104 70 213 109 71 26 134 48 138 48 4 1 18 -6 30 -14z"/>
<path d="M28395 6879 c-129 -9 -274 -39 -394 -81 -290 -102 -455 -260 -533
-508 -21 -68 -23 -93 -23 -265 0 -182 2 -193 28 -270 103 -294 352 -477 768
-565 57 -12 138 -32 179 -45 131 -40 150 -40 190 -3 27 25 44 33 70 32 28 -1
34 -5 32 -19 -13 -69 58 -112 189 -114 33 -1 36 -3 32 -26 -4 -17 5 -37 32
-70 36 -43 37 -48 32 -100 -3 -30 -13 -69 -21 -87 -9 -17 -16 -43 -16 -57 0
-46 -13 -55 -73 -52 -30 1 -58 -2 -61 -7 -3 -5 -23 -13 -43 -16 -91 -16 -179
-40 -192 -52 -11 -10 -18 -9 -40 7 -16 12 -56 23 -106 29 -99 13 -240 76 -288
129 -46 52 -87 164 -87 240 0 19 -8 34 -24 44 -25 17 -9 17 -518 -9 l-136 -7
-22 -30 c-26 -34 -25 -68 9 -247 30 -161 94 -297 193 -410 53 -61 139 -130
160 -130 10 0 18 -6 18 -13 0 -16 113 -78 206 -113 65 -24 232 -63 299 -69 17
-1 44 -6 60 -10 24 -5 35 -2 49 14 24 26 38 26 61 1 25 -27 86 -27 110 0 l18
20 23 -21 c23 -22 26 -22 166 -11 166 14 239 30 274 63 20 19 36 23 92 24 59
1 77 6 147 43 104 56 246 161 265 198 8 16 27 39 41 51 52 44 127 222 148 348
16 102 22 185 14 198 -4 6 -6 38 -4 69 5 102 -14 160 -76 233 -51 59 -55 68
-44 88 25 47 -16 105 -159 223 -69 57 -118 88 -183 116 -115 50 -313 109 -512
154 -401 90 -470 113 -540 178 -33 32 -35 37 -35 100 0 77 12 102 77 151 38
29 54 34 126 40 45 4 104 13 131 20 29 8 56 9 65 5 9 -5 52 -16 96 -25 103
-22 188 -60 224 -101 34 -39 68 -124 86 -217 7 -38 15 -71 18 -74 3 -2 71 2
152 11 81 9 150 14 154 12 4 -3 90 5 192 18 l184 22 -2 75 c-1 82 -48 279 -82
350 -109 227 -285 372 -564 463 -99 32 -169 45 -297 55 -95 7 -107 6 -129 -11
-24 -18 -25 -18 -46 2 -12 11 -28 19 -36 19 -8 -1 -63 -5 -124 -10z"/>
<path d="M30368 6848 l-26 -42 27 -55 28 -54 -34 -30 -33 -29 0 -350 c0 -340
1 -351 21 -380 l21 -29 -21 -23 c-18 -19 -21 -34 -21 -113 0 -68 4 -94 15
-103 13 -11 13 -15 0 -41 -13 -24 -15 -140 -15 -802 0 -754 1 -774 19 -791 18
-17 47 -18 343 -17 315 2 323 3 346 23 l22 22 -2 781 c-3 869 -9 807 62 680
19 -33 77 -130 131 -216 53 -86 163 -268 244 -405 215 -364 386 -647 400 -663
11 -11 21 -11 64 0 l51 13 0 518 0 519 -147 246 c-82 135 -156 260 -166 277
-10 17 -36 49 -57 71 -29 29 -42 54 -50 93 -10 42 -19 59 -51 84 -26 21 -39
39 -39 56 0 29 -54 122 -122 209 -26 35 -48 68 -48 74 0 18 -146 274 -229 401
l-76 118 -315 0 -315 0 -27 -42z"/>
<path d="M32937 6793 c-84 -129 -168 -272 -211 -362 -19 -40 -52 -95 -74 -124
-55 -70 -122 -187 -122 -211 0 -10 -18 -35 -39 -55 -25 -23 -43 -51 -50 -78
-7 -24 -34 -72 -61 -108 -28 -37 -50 -70 -50 -75 0 -5 -6 -15 -13 -22 -7 -7
-77 -120 -155 -252 l-142 -238 0 -518 0 -518 52 -16 c40 -12 54 -12 60 -3 25
37 235 386 363 602 81 138 201 336 265 440 65 105 132 216 150 248 17 31 34
57 38 57 6 0 -7 -1114 -17 -1362 -6 -157 -5 -168 14 -192 l20 -24 327 -1 327
-1 30 26 31 25 0 1292 0 1291 -31 32 -31 32 35 68 34 69 -25 38 -25 37 -318 0
-318 0 -64 -97z"/>
<path d="M35175 6878 c-46 -123 -396 -1137 -465 -1343 -51 -154 -96 -284 -100
-290 -5 -5 -20 -50 -35 -100 -15 -49 -32 -96 -37 -105 -10 -18 -148 -429 -148
-443 0 -5 -8 -15 -17 -22 -15 -11 -18 -41 -20 -276 l-4 -262 27 -28 27 -28
308 1 308 1 15 51 c38 131 59 212 58 226 0 8 9 38 20 67 11 29 37 107 57 174
l38 121 20 -26 21 -26 371 0 370 0 31 -97 c17 -54 56 -187 87 -295 l56 -198
383 0 383 0 27 36 28 36 -27 81 c-15 45 -240 683 -500 1417 l-472 1335 -403 3
c-317 2 -404 0 -407 -10z m546 -1426 c38 -127 69 -234 69 -237 0 -3 -93 -5
-206 -5 -189 0 -206 1 -200 17 10 25 182 633 191 673 7 32 11 26 42 -90 19
-69 65 -230 104 -358z"/>
<path d="M37587 6862 l-27 -28 0 -516 c0 -350 3 -519 10 -523 7 -5 8 -11 1
-19 -6 -7 -10 -250 -10 -661 0 -549 2 -653 14 -671 12 -19 12 -24 0 -34 -22
-18 -21 -237 0 -267 10 -14 12 -24 5 -28 -5 -3 -10 -21 -10 -39 0 -23 9 -41
33 -64 32 -31 35 -32 127 -32 82 0 96 3 117 22 13 12 23 17 23 10 0 -19 100
-32 235 -31 125 1 131 2 158 27 32 30 37 85 10 114 -15 17 -15 20 7 43 l24 25
-24 43 c-12 23 -30 50 -38 60 -14 15 -14 19 0 30 25 19 33 105 13 127 -16 17
-14 21 19 58 l36 39 0 248 c0 236 1 247 18 233 14 -13 60 -17 267 -20 l250 -5
55 -31 c30 -18 58 -32 61 -32 3 0 16 -25 28 -55 19 -46 27 -55 49 -55 24 0 24
-1 9 -18 -20 -22 -22 -63 -5 -80 7 -7 25 -12 40 -12 17 0 31 -7 35 -15 9 -26
59 -45 116 -45 44 0 58 4 77 25 18 20 22 31 17 61 -8 45 4 63 38 56 19 -3 25
-10 25 -32 0 -15 9 -35 20 -45 14 -12 20 -31 20 -58 0 -38 -1 -39 -18 -24 -12
11 -36 17 -69 17 -48 0 -54 -3 -92 -46 -23 -26 -41 -53 -41 -60 0 -17 -24 -18
-50 -2 -17 11 -24 9 -50 -18 -31 -30 -31 -31 -21 -94 6 -35 18 -97 27 -137
l16 -73 37 0 c29 0 39 -5 53 -29 14 -26 14 -32 2 -42 -8 -7 -14 -30 -14 -58 0
-40 5 -52 33 -79 38 -37 88 -43 119 -15 17 15 20 15 41 -5 34 -32 86 -29 120
6 32 34 34 49 6 78 l-21 22 30 16 c16 8 32 12 36 9 3 -4 6 -26 6 -50 0 -36 6
-50 29 -74 31 -30 59 -37 78 -18 8 8 13 8 17 0 4 -6 37 -11 75 -11 58 0 71 3
89 23 12 13 22 30 22 39 0 9 12 18 30 22 28 5 30 9 30 49 0 31 -6 49 -20 62
-12 10 -18 25 -15 33 5 13 -20 103 -77 277 -11 33 -23 98 -28 145 -9 93 -38
279 -45 290 -2 4 -11 42 -20 85 -18 85 -47 153 -70 161 -8 3 -18 22 -21 42 -5
26 -25 55 -73 104 l-66 67 40 18 c57 25 184 156 223 230 33 63 62 137 88 228
24 82 10 485 -16 485 -4 0 -11 15 -14 34 -9 49 -108 202 -174 269 -108 110
-179 140 -233 98 -30 -22 -77 -32 -86 -17 -4 6 -6 23 -4 39 4 41 -42 82 -109
96 -84 18 -367 30 -642 28 -225 -2 -248 -4 -267 -21 -21 -19 -22 -19 -44 2
-23 21 -29 22 -344 22 l-320 -1 -26 -27z m869 -621 c181 1 404 -10 498 -24 85
-14 92 -16 123 -53 56 -66 73 -111 73 -197 0 -42 -4 -79 -10 -82 -5 -3 -10
-21 -10 -39 0 -71 -97 -155 -216 -187 -66 -17 -119 -22 -324 -26 -202 -4 -248
-8 -262 -21 -17 -14 -18 2 -18 323 0 327 1 338 18 322 15 -14 39 -17 128 -16z"/>
<path d="M40550 6875 c-19 -23 -3 -209 20 -230 16 -15 17 -22 5 -70 -7 -30
-17 -60 -23 -67 -9 -12 -16 -49 -28 -164 -6 -51 -6 -51 43 -93 l48 -42 125 2
c322 4 534 -1 522 -13 -7 -7 -12 -26 -12 -43 0 -17 5 -36 12 -43 9 -9 9 -15 0
-24 -15 -15 -16 -112 -1 -139 7 -15 7 -24 0 -33 -16 -19 -14 -792 2 -817 9
-15 9 -24 -1 -39 -9 -15 -12 -139 -12 -517 l0 -497 27 -28 27 -28 326 0 327 0
21 23 22 23 0 994 c0 724 -4 997 -12 1007 -8 10 -8 17 0 25 7 7 12 37 12 68 0
46 -4 61 -23 78 -13 12 -33 22 -46 22 -12 0 -19 4 -16 10 8 12 54 2 76 -16 12
-11 80 -14 340 -14 l325 0 27 28 27 28 0 297 0 296 -37 12 c-21 6 -94 13 -161
16 -104 4 -127 2 -141 -12 -16 -14 -20 -14 -31 -1 -10 14 -94 16 -639 16 -363
0 -632 -4 -641 -10 -8 -5 -19 -5 -25 0 -13 11 -275 6 -338 -7 -37 -8 -50 -7
-58 4 -15 17 -73 17 -89 -2z"/>
</g>
</svg>
