<?xml version="1.0" standalone="no"?>
<!DOCTYPE svg PUBLIC "-//W3C//DTD SVG 20010904//EN"
 "http://www.w3.org/TR/2001/REC-SVG-20010904/DTD/svg10.dtd">
<svg version="1.0" xmlns="http://www.w3.org/2000/svg"
viewBox="0 0 4724.000000 1028.000000"
 preserveAspectRatio="xMidYMid meet">

<g transform="translate(0.000000,1028.000000) scale(0.100000,-0.100000)"
fill="#000000" stroke="none">
<path d="M19925 6510 c-18 -19 -20 -40 -22 -173 l-3 -152 46 -46 46 -46 -42
-29 c-39 -28 -41 -31 -37 -72 3 -23 1 -44 -3 -47 -4 -2 -8 -83 -9 -179 -1
-144 2 -176 14 -186 14 -12 14 -15 0 -30 -14 -15 -15 -111 -12 -856 3 -475 8
-862 14 -892 7 -41 6 -55 -4 -63 -26 -22 -15 -73 22 -109 l35 -34 31 30 c27
26 36 29 85 26 46 -3 60 0 79 18 22 20 26 21 86 9 35 -6 72 -19 81 -27 12 -10
30 -13 56 -10 24 4 45 0 57 -8 10 -8 40 -14 65 -14 41 0 50 5 89 44 l44 44 24
-29 c14 -16 33 -29 43 -29 10 0 23 -7 30 -15 18 -22 172 -21 190 0 12 14 15
14 30 0 13 -12 50 -15 206 -14 104 1 197 6 208 11 12 7 22 6 29 -1 8 -8 112
-11 327 -11 l317 0 21 23 c22 23 22 29 22 297 -1 336 5 320 -131 320 -63 0
-90 -4 -98 -14 -11 -13 -17 -12 -47 0 -25 10 -71 15 -152 14 -64 0 -281 0
-482 0 -358 -1 -365 -1 -387 -22 -13 -12 -23 -30 -23 -40 0 -11 -7 -18 -20
-18 -11 0 -20 -7 -20 -15 0 -8 -8 -15 -18 -15 -11 0 -27 -9 -38 -21 -19 -21
-19 -16 -24 312 -3 184 -3 364 -1 401 l3 66 30 -34 c28 -32 34 -34 92 -34 36
0 67 5 74 12 10 10 17 10 32 0 16 -10 142 -12 544 -11 l524 1 11 77 c5 42 10
165 10 273 l0 197 -47 41 -47 40 -530 -2 c-291 -1 -535 -6 -542 -10 -7 -6 -28
-4 -53 3 -39 12 -42 11 -70 -16 l-30 -29 0 258 0 257 22 -15 c20 -14 101 -16
683 -16 l660 1 28 24 27 24 0 263 0 263 -34 28 -35 27 -650 0 -649 0 -30 -25
-29 -24 -23 24 c-23 25 -25 25 -205 25 -124 0 -185 -4 -193 -12 -7 -7 -15 -8
-24 -1 -7 5 -67 10 -134 12 -112 2 -121 0 -139 -19z"/>
<path d="M22745 6510 c-18 -19 -20 -40 -22 -173 l-3 -152 46 -46 46 -46 -42
-29 c-39 -28 -41 -31 -37 -72 3 -23 1 -44 -3 -47 -4 -2 -8 -83 -9 -179 -1
-144 2 -176 14 -186 14 -12 14 -15 0 -30 -14 -15 -15 -111 -12 -856 3 -475 8
-862 14 -892 7 -41 6 -55 -4 -63 -26 -22 -15 -73 22 -109 l35 -34 31 30 c27
26 36 29 85 26 46 -3 60 0 79 18 22 20 26 21 86 9 35 -6 72 -19 81 -27 12 -10
30 -13 56 -10 24 4 45 0 57 -8 10 -8 40 -14 65 -14 41 0 50 4 93 48 l47 48 -1
534 c0 659 0 670 10 645 5 -11 17 -28 28 -37 18 -16 57 -17 514 -15 l494 2 30
23 c17 13 33 36 36 50 5 20 7 13 8 -25 0 -29 6 -63 12 -77 9 -19 9 -29 1 -39
-15 -18 -17 -823 -2 -832 7 -4 7 -12 0 -25 -5 -10 -10 -46 -10 -79 0 -33 5
-63 10 -66 7 -4 7 -12 0 -25 -29 -54 14 -130 75 -130 17 0 36 5 42 11 8 8 13
8 17 0 9 -15 129 -14 144 1 8 8 15 8 27 -2 10 -9 31 -11 68 -6 28 4 57 6 62 5
6 0 63 -3 129 -6 119 -4 119 -4 147 23 25 24 29 35 29 84 0 31 -5 61 -12 68
-8 8 -8 15 0 25 15 18 17 949 2 977 -7 13 -7 21 0 25 7 4 10 291 10 834 l0
828 -23 21 c-23 22 -28 22 -353 22 l-331 0 -21 -23 -22 -23 0 -549 0 -549 -43
42 -44 43 -447 -3 c-246 -1 -449 -6 -452 -9 -2 -4 -20 -2 -39 4 -32 10 -38 8
-65 -18 l-30 -29 0 530 0 530 -28 27 -28 27 -180 0 c-123 0 -184 -4 -192 -12
-7 -7 -15 -8 -24 -1 -7 5 -67 10 -134 12 -112 2 -121 0 -139 -19z"/>
<path d="M26007 6502 l-27 -28 0 -516 c0 -350 3 -519 10 -523 7 -5 8 -11 1
-19 -6 -7 -10 -250 -10 -661 0 -549 2 -653 14 -671 12 -19 12 -24 0 -34 -22
-18 -21 -237 0 -267 10 -14 12 -24 5 -28 -5 -3 -10 -21 -10 -39 0 -23 9 -41
33 -64 32 -31 35 -32 127 -32 82 0 96 3 117 22 13 12 23 17 23 10 0 -19 100
-32 235 -31 125 1 131 2 158 27 32 30 37 85 10 114 -15 17 -15 20 7 43 l24 25
-24 43 c-12 23 -30 50 -38 60 -14 15 -14 19 0 30 25 19 33 105 13 127 -16 17
-14 21 19 58 l36 39 0 248 c0 236 1 247 18 233 14 -13 60 -17 267 -20 l250 -5
55 -31 c30 -18 58 -32 61 -32 3 0 16 -25 28 -55 19 -46 27 -55 49 -55 24 0 24
-1 9 -18 -20 -22 -22 -63 -5 -80 7 -7 25 -12 40 -12 17 0 31 -7 35 -15 9 -26
59 -45 116 -45 44 0 58 4 77 25 18 20 22 31 17 61 -8 45 4 63 38 56 19 -3 25
-10 25 -32 0 -15 9 -35 20 -45 14 -12 20 -31 20 -58 0 -38 -1 -39 -18 -24 -12
11 -36 17 -69 17 -48 0 -54 -3 -92 -46 -23 -26 -41 -53 -41 -60 0 -17 -24 -18
-50 -2 -17 11 -24 9 -50 -18 -31 -30 -31 -31 -21 -94 6 -35 18 -97 27 -137
l16 -73 37 0 c29 0 39 -5 53 -29 14 -26 14 -32 2 -42 -8 -7 -14 -30 -14 -58 0
-40 5 -52 33 -79 38 -37 88 -43 119 -15 17 15 20 15 41 -5 34 -32 86 -29 120
6 32 34 34 49 6 78 l-21 22 30 16 c16 8 32 12 36 9 3 -4 6 -26 6 -50 0 -36 6
-50 29 -74 31 -30 59 -37 78 -18 8 8 13 8 17 0 4 -6 37 -11 75 -11 58 0 71 3
89 23 12 13 22 30 22 39 0 9 12 18 30 22 28 5 30 9 30 49 0 31 -6 49 -20 62
-12 10 -18 25 -15 33 5 13 -20 103 -77 277 -11 33 -23 98 -28 145 -9 93 -38
279 -45 290 -2 4 -11 42 -20 85 -18 85 -47 153 -70 161 -8 3 -18 22 -21 42 -5
26 -25 55 -73 104 l-66 67 40 18 c57 25 184 156 223 230 33 63 62 137 88 228
24 82 10 485 -16 485 -4 0 -11 15 -14 34 -9 49 -108 202 -174 269 -108 110
-179 140 -233 98 -30 -22 -77 -32 -86 -17 -4 6 -6 23 -4 39 4 41 -42 82 -109
96 -84 18 -367 30 -642 28 -225 -2 -248 -4 -267 -21 -21 -19 -22 -19 -44 2
-23 21 -29 22 -344 22 l-320 -1 -26 -27z m869 -621 c181 1 404 -10 498 -24 85
-14 92 -16 123 -53 56 -66 73 -111 73 -197 0 -42 -4 -79 -10 -82 -5 -3 -10
-21 -10 -39 0 -71 -97 -155 -216 -187 -66 -17 -119 -22 -324 -26 -202 -4 -248
-8 -262 -21 -17 -14 -18 2 -18 323 0 327 1 338 18 322 15 -14 39 -17 128 -16z"/>
</g>
</svg>
