<?xml version="1.0" standalone="no"?>
<!DOCTYPE svg PUBLIC "-//W3C//DTD SVG 20010904//EN"
 "http://www.w3.org/TR/2001/REC-SVG-20010904/DTD/svg10.dtd">
<svg version="1.0" xmlns="http://www.w3.org/2000/svg"
viewBox="0 0 4724.000000 1028.000000"
 preserveAspectRatio="xMidYMid meet">
<g transform="translate(0.000000,1028.000000) scale(0.100000,-0.100000)"
fill="#000000" stroke="none">
<path d="M32877 6935 l-17 -35 -183 0 c-179 0 -184 -1 -205 -23 -12 -13 -22
-35 -22 -50 0 -15 -4 -27 -10 -27 -5 0 -10 6 -10 13 0 18 -42 57 -62 57 -9 0
-21 7 -28 15 -11 13 -56 15 -294 15 l-282 0 -27 -28 c-26 -27 -27 -33 -27
-128 0 -62 4 -104 12 -112 8 -8 8 -15 0 -25 -17 -20 -17 -2414 0 -2434 8 -10
8 -20 -1 -39 -21 -47 -14 -87 22 -122 l34 -33 199 5 c238 7 215 6 339 1 91 -4
101 -3 122 17 l23 21 0 480 c0 476 0 480 20 462 18 -16 42 -17 327 -12 253 3
328 8 423 25 137 25 233 53 316 94 69 34 174 112 174 131 1 6 23 30 50 51 28
22 50 48 50 58 0 10 18 44 39 76 96 140 131 267 138 497 8 255 -27 404 -141
605 -53 94 -53 95 -35 116 30 33 24 68 -18 103 -45 37 -96 42 -113 11 -10 -18
-13 -18 -71 20 -114 74 -295 130 -479 150 -52 5 -103 10 -112 10 -10 0 -21 14
-28 35 -11 33 -14 35 -59 35 -44 0 -48 -2 -64 -35z m-278 -674 c72 1 96 -2
110 -15 23 -21 50 -20 75 3 26 24 140 35 156 16 6 -7 35 -15 65 -17 147 -12
256 -166 242 -345 -10 -136 -75 -226 -205 -285 l-64 -29 -241 1 c-212 0 -242
-1 -258 -16 -19 -17 -19 -7 -19 356 l0 373 23 -21 c21 -20 34 -22 116 -21z"/>
<path d="M9586 6879 c-167 -14 -310 -56 -466 -134 -195 -99 -403 -284 -497
-443 -169 -286 -241 -565 -230 -887 7 -182 21 -315 37 -345 7 -13 14 -45 16
-73 2 -28 7 -53 11 -56 5 -3 17 -33 27 -66 24 -81 100 -238 144 -300 109 -152
153 -204 236 -277 195 -172 344 -247 417 -208 17 10 19 7 19 -19 0 -23 5 -32
23 -36 163 -39 202 -44 231 -30 26 14 32 13 61 -5 47 -29 106 -17 140 29 14
19 25 28 25 20 0 -8 13 -28 30 -44 29 -28 30 -28 117 -21 297 24 548 136 802
357 66 57 101 98 163 193 159 244 241 457 255 666 5 71 3 88 -10 99 -15 11
-15 15 -2 28 23 22 18 74 -9 105 l-24 27 -320 1 -321 1 -17 -26 -17 -25 -33
25 -34 26 -257 -2 -257 -1 -33 -25 -33 -25 0 -267 c0 -265 0 -268 23 -288 21
-20 32 -21 234 -20 117 1 212 -1 210 -4 -6 -15 -120 -110 -149 -125 -18 -9
-46 -26 -63 -38 -16 -11 -36 -21 -45 -23 -8 -1 -41 -7 -72 -14 l-58 -12 0 -38
c0 -34 -3 -39 -23 -39 -51 0 -91 -92 -55 -128 8 -8 8 -15 1 -24 -6 -7 -13 -24
-16 -38 -2 -14 -5 12 -6 58 -1 75 -3 85 -26 106 -19 17 -25 34 -25 63 l0 39
-97 23 c-83 20 -110 32 -181 80 -78 54 -85 62 -152 174 -39 64 -70 121 -70
127 0 5 -7 30 -16 55 -8 25 -22 90 -30 143 -8 53 -21 121 -29 150 -14 47 -14
57 0 98 8 24 15 71 15 103 0 72 38 225 78 312 51 114 105 183 197 252 72 55
104 71 219 111 125 44 136 46 158 32 13 -8 55 -22 93 -31 130 -30 270 -115
346 -212 44 -55 100 -160 93 -176 -5 -14 49 -71 133 -141 l32 -27 291 138
c326 154 304 134 260 228 -10 22 -28 65 -40 95 -12 30 -50 98 -85 150 -220
331 -588 548 -984 580 -111 9 -116 8 -138 -12 l-23 -21 -23 21 c-25 24 -29 24
-171 11z"/>
<path d="M12861 6809 c-38 -44 -73 -94 -76 -110 -5 -21 -18 -35 -45 -49 -37
-19 -80 -63 -80 -82 0 -11 -47 -77 -71 -98 -9 -8 -199 -232 -422 -497 -389
-461 -406 -483 -395 -508 10 -22 8 -29 -11 -49 -21 -23 -22 -27 -17 -227 6
-249 6 -214 0 -338 -5 -97 -4 -105 17 -127 l22 -24 578 0 578 0 20 27 21 26
25 -23 25 -23 0 -202 c0 -131 4 -205 11 -212 8 -8 8 -13 0 -17 -15 -10 -14
-129 1 -144 9 -9 9 -15 0 -24 -22 -22 -14 -72 16 -100 26 -25 33 -26 136 -27
66 0 115 4 123 10 9 9 17 8 28 -1 9 -8 33 -10 67 -6 29 3 58 5 63 5 6 -1 63
-3 129 -6 119 -4 119 -4 147 23 25 24 29 35 29 84 0 31 -5 61 -12 68 -8 8 -8
15 0 25 15 18 16 515 2 532 -7 9 -5 16 5 25 13 11 15 59 15 333 -1 284 -3 323
-17 339 -13 14 -14 21 -5 30 18 18 17 1278 -1 1278 -7 0 -22 6 -33 14 -19 14
-19 15 3 38 l22 23 -21 48 -21 47 -393 0 -393 0 -70 -81z m169 -1123 l0 -235
-27 -3 c-16 -2 -106 -2 -200 0 l-173 3 178 210 c97 116 186 222 196 235 11 13
21 24 23 24 2 0 3 -105 3 -234z"/>
<path d="M14480 6875 c-19 -23 -3 -209 20 -230 16 -15 17 -22 5 -70 -7 -30
-17 -60 -23 -67 -9 -12 -16 -49 -28 -164 -6 -51 -6 -51 43 -93 l48 -42 125 2
c322 4 534 -1 522 -13 -7 -7 -12 -26 -12 -43 0 -17 5 -36 12 -43 9 -9 9 -15 0
-24 -15 -15 -16 -112 -1 -139 7 -15 7 -24 0 -33 -16 -19 -14 -792 2 -817 9
-15 9 -24 -1 -39 -9 -15 -12 -139 -12 -517 l0 -497 27 -28 27 -28 326 0 327 0
21 23 22 23 0 994 c0 724 -4 997 -12 1007 -8 10 -8 17 0 25 7 7 12 37 12 68 0
46 -4 61 -23 78 -13 12 -33 22 -46 22 -12 0 -19 4 -16 10 8 12 54 2 76 -16 12
-11 80 -14 340 -14 l325 0 27 28 27 28 0 297 0 296 -37 12 c-21 6 -94 13 -161
16 -104 4 -127 2 -141 -12 -16 -14 -20 -14 -31 -1 -10 14 -94 16 -639 16 -363
0 -632 -4 -641 -10 -8 -5 -19 -5 -25 0 -13 11 -275 6 -338 -7 -37 -8 -50 -7
-58 4 -15 17 -73 17 -89 -2z"/>
<path d="M17327 6862 l-27 -28 0 -516 c0 -350 3 -519 10 -523 7 -5 8 -11 1
-19 -6 -7 -10 -250 -10 -661 0 -549 2 -653 14 -671 12 -19 12 -24 0 -34 -22
-18 -21 -237 0 -267 10 -14 12 -24 5 -28 -5 -3 -10 -21 -10 -39 0 -23 9 -41
33 -64 32 -31 35 -32 127 -32 82 0 96 3 117 22 13 12 23 17 23 10 0 -19 100
-32 235 -31 125 1 131 2 158 27 32 30 37 85 10 114 -15 17 -15 20 7 43 l24 25
-24 43 c-12 23 -30 50 -38 60 -14 15 -14 19 0 30 25 19 33 105 13 127 -16 17
-14 21 19 58 l36 39 0 248 c0 236 1 247 18 233 14 -13 60 -17 267 -20 l250 -5
55 -31 c30 -18 58 -32 61 -32 3 0 16 -25 28 -55 19 -46 27 -55 49 -55 24 0 24
-1 9 -18 -20 -22 -22 -63 -5 -80 7 -7 25 -12 40 -12 17 0 31 -7 35 -15 9 -26
59 -45 116 -45 44 0 58 4 77 25 18 20 22 31 17 61 -8 45 4 63 38 56 19 -3 25
-10 25 -32 0 -15 9 -35 20 -45 14 -12 20 -31 20 -58 0 -38 -1 -39 -18 -24 -12
11 -36 17 -69 17 -48 0 -54 -3 -92 -46 -23 -26 -41 -53 -41 -60 0 -17 -24 -18
-50 -2 -17 11 -24 9 -50 -18 -31 -30 -31 -31 -21 -94 6 -35 18 -97 27 -137
l16 -73 37 0 c29 0 39 -5 53 -29 14 -26 14 -32 2 -42 -8 -7 -14 -30 -14 -58 0
-40 5 -52 33 -79 38 -37 88 -43 119 -15 17 15 20 15 41 -5 34 -32 86 -29 120
6 32 34 34 49 6 78 l-21 22 30 16 c16 8 32 12 36 9 3 -4 6 -26 6 -50 0 -36 6
-50 29 -74 31 -30 59 -37 78 -18 8 8 13 8 17 0 4 -6 37 -11 75 -11 58 0 71 3
89 23 12 13 22 30 22 39 0 9 12 18 30 22 28 5 30 9 30 49 0 31 -6 49 -20 62
-12 10 -18 25 -15 33 5 13 -20 103 -77 277 -11 33 -23 98 -28 145 -9 93 -38
279 -45 290 -2 4 -11 42 -20 85 -18 85 -47 153 -70 161 -8 3 -18 22 -21 42 -5
26 -25 55 -73 104 l-66 67 40 18 c57 25 184 156 223 230 33 63 62 137 88 228
24 82 10 485 -16 485 -4 0 -11 15 -14 34 -9 49 -108 202 -174 269 -108 110
-179 140 -233 98 -30 -22 -77 -32 -86 -17 -4 6 -6 23 -4 39 4 41 -42 82 -109
96 -84 18 -367 30 -642 28 -225 -2 -248 -4 -267 -21 -21 -19 -22 -19 -44 2
-23 21 -29 22 -344 22 l-320 -1 -26 -27z m869 -621 c181 1 404 -10 498 -24 85
-14 92 -16 123 -53 56 -66 73 -111 73 -197 0 -42 -4 -79 -10 -82 -5 -3 -10
-21 -10 -39 0 -71 -97 -155 -216 -187 -66 -17 -119 -22 -324 -26 -202 -4 -248
-8 -262 -21 -17 -14 -18 2 -18 323 0 327 1 338 18 322 15 -14 39 -17 128 -16z"/>
<path d="M21085 6878 c-46 -123 -396 -1137 -465 -1343 -51 -154 -96 -284 -100
-290 -5 -5 -20 -50 -35 -100 -15 -49 -32 -96 -37 -105 -10 -18 -148 -429 -148
-443 0 -5 -8 -15 -17 -22 -15 -11 -18 -41 -20 -276 l-4 -262 27 -28 27 -28
308 1 308 1 15 51 c38 131 59 212 58 226 0 8 9 38 20 67 11 29 37 107 57 174
l38 121 20 -26 21 -26 371 0 370 0 31 -97 c17 -54 56 -187 87 -295 l56 -198
383 0 383 0 27 36 28 36 -27 81 c-15 45 -240 683 -500 1417 l-472 1335 -403 3
c-317 2 -404 0 -407 -10z m546 -1426 c38 -127 69 -234 69 -237 0 -3 -93 -5
-206 -5 -189 0 -206 1 -200 17 10 25 182 633 191 673 7 32 11 26 42 -90 19
-69 65 -230 104 -358z"/>
<path d="M24676 6879 c-303 -27 -562 -149 -799 -378 -86 -83 -121 -126 -165
-201 -167 -283 -240 -566 -229 -885 7 -182 21 -315 37 -345 7 -13 14 -45 16
-73 2 -28 7 -53 11 -56 5 -3 17 -33 27 -66 24 -81 100 -238 144 -300 109 -152
153 -204 236 -277 195 -172 344 -247 417 -208 17 10 19 7 19 -19 0 -23 5 -32
23 -36 163 -39 202 -44 231 -29 27 13 32 12 63 -6 47 -28 106 -18 134 21 l20
29 32 -37 31 -36 90 7 c296 23 550 135 805 356 62 54 101 100 152 177 101 153
164 273 153 290 -5 7 -139 83 -298 168 l-288 154 -44 -22 c-36 -17 -44 -26
-44 -48 0 -14 -9 -38 -20 -52 -14 -18 -18 -34 -14 -55 5 -25 1 -33 -26 -52
-18 -13 -37 -35 -44 -49 -13 -32 -112 -123 -158 -147 -18 -9 -46 -26 -63 -38
-16 -11 -32 -21 -35 -21 -3 -1 -35 -7 -72 -14 l-68 -13 0 -39 c0 -34 -3 -39
-23 -39 -51 0 -91 -92 -55 -128 8 -8 8 -15 1 -24 -6 -7 -13 -24 -16 -38 -2
-14 -5 12 -6 58 -1 75 -3 85 -26 106 -19 17 -25 34 -25 63 l0 39 -97 23 c-83
20 -110 32 -181 80 -80 55 -86 62 -152 175 -39 65 -70 124 -70 130 -1 6 -7 29
-16 51 -8 22 -19 74 -25 115 -5 41 -19 112 -30 157 -16 66 -18 87 -8 104 6 12
15 67 19 123 10 114 44 234 97 340 52 104 88 149 177 218 69 54 100 69 216
110 127 46 137 48 161 33 15 -8 58 -22 95 -30 129 -30 269 -115 345 -212 44
-55 100 -160 93 -176 -5 -14 49 -71 133 -141 l32 -27 291 138 c326 154 304
134 260 228 -10 22 -28 65 -40 95 -12 30 -50 98 -85 150 -220 331 -588 548
-984 580 -111 9 -116 8 -138 -12 l-23 -21 -23 21 c-25 24 -29 24 -171 11z"/>
<path d="M26797 6862 l-27 -28 0 -1399 0 -1399 27 -28 27 -28 348 0 348 0 1
173 c1 94 4 353 8 575 l6 403 492 -576 493 -575 398 0 398 0 27 28 c15 15 27
36 27 46 0 13 -946 1106 -1282 1482 l-19 22 620 617 c342 340 621 626 621 635
0 9 -15 30 -33 48 l-33 32 -415 0 -414 0 -440 -470 -440 -469 -3 441 -2 442
-27 28 -27 28 -326 0 -326 0 -27 -28z"/>
<path d="M34627 6862 l-27 -28 0 -817 c0 -592 3 -823 11 -841 9 -18 9 -29 1
-38 -14 -18 -17 -834 -2 -843 7 -4 7 -12 0 -25 -13 -25 -13 -123 1 -137 8 -8
8 -17 0 -31 -18 -34 -12 -67 17 -94 l27 -26 325 -1 c318 0 325 0 347 21 19 18
23 32 23 83 0 33 -5 66 -12 73 -8 8 -8 15 0 25 9 10 12 365 12 1337 l0 1324
-22 23 -21 23 -327 0 -326 0 -27 -28z"/>
<path d="M38295 6878 c-46 -123 -396 -1137 -465 -1343 -51 -154 -96 -284 -100
-290 -5 -5 -20 -50 -35 -100 -15 -49 -32 -96 -37 -105 -10 -18 -148 -429 -148
-443 0 -5 -8 -15 -17 -22 -15 -11 -18 -41 -20 -276 l-4 -262 27 -28 27 -28
308 1 308 1 15 51 c38 131 59 212 58 226 0 8 9 38 20 67 11 29 37 107 57 174
l38 121 20 -26 21 -26 371 0 370 0 31 -97 c17 -54 56 -187 87 -295 l56 -198
383 0 383 0 27 36 28 36 -27 81 c-15 45 -240 683 -500 1417 l-472 1335 -403 3
c-317 2 -404 0 -407 -10z m546 -1426 c38 -127 69 -234 69 -237 0 -3 -93 -5
-206 -5 -189 0 -206 1 -200 17 10 25 182 633 191 673 7 32 11 26 42 -90 19
-69 65 -230 104 -358z"/>
<path d="M40711 6856 c-12 -18 -21 -39 -21 -46 0 -7 122 -292 272 -632 l272
-620 57 4 56 3 -17 -40 c-10 -22 -158 -358 -329 -748 -171 -389 -311 -712
-311 -717 0 -6 10 -26 23 -45 l22 -35 376 0 375 0 288 658 c159 361 297 666
308 678 10 11 20 34 22 50 2 17 144 349 315 738 l312 709 -26 39 -25 38 -377
-2 -376 -3 -106 -242 c-58 -133 -109 -244 -112 -247 -3 -3 -55 106 -115 244
l-109 250 -377 0 -376 0 -21 -34z"/>
<path d="M35924 4621 c-2 -2 -60 -3 -128 -2 -99 2 -131 -1 -156 -14 -29 -15
-33 -15 -49 -1 -13 12 -39 16 -103 16 -132 0 -127 14 -127 -314 l-1 -270 27
-28 27 -28 311 0 c212 0 314 3 322 11 7 7 17 8 29 1 28 -15 404 -15 421 0 10
8 17 8 25 0 18 -18 173 -16 188 3 7 8 22 15 35 15 42 0 57 31 54 109 -2 38 0
73 4 77 14 15 8 117 -10 136 -15 17 -15 19 0 36 26 28 22 94 -6 120 -13 12
-30 22 -39 22 -9 0 -18 7 -22 15 -3 8 -15 15 -26 15 -13 0 -20 7 -20 18 0 10
-10 28 -23 40 -22 20 -31 21 -375 24 -195 2 -356 1 -358 -1z"/>
</g>
</svg>
