<?xml version="1.0" standalone="no"?>
<!DOCTYPE svg PUBLIC "-//W3C//DTD SVG 20010904//EN"
 "http://www.w3.org/TR/2001/REC-SVG-20010904/DTD/svg10.dtd">
<svg version="1.0" xmlns="http://www.w3.org/2000/svg"
 viewBox="0 0 3000.000000 3000.000000"
 preserveAspectRatio="xMidYMid meet">
<metadata>
Created by potrace 1.15, written by Peter Selinger 2001-2017
</metadata>
<g transform="translate(0.000000,3000.000000) scale(0.100000,-0.100000)"
fill="#000000" stroke="none">
<path d="M14445 25019 c-33 -4 -139 -12 -235 -18 -96 -5 -193 -14 -215 -20
-22 -6 -77 -11 -122 -11 -45 0 -108 -7 -140 -15 -31 -8 -86 -15 -121 -15 -35
0 -72 -5 -83 -10 -17 -10 -60 -16 -274 -39 -38 -4 -80 -13 -92 -19 -12 -7 -44
-12 -71 -12 -27 0 -66 -7 -85 -15 -20 -8 -52 -15 -70 -15 -19 0 -54 -7 -77
-15 -23 -8 -60 -15 -81 -15 -21 0 -40 -4 -43 -9 -3 -4 -30 -11 -60 -15 -31 -3
-66 -10 -78 -15 -22 -8 -86 -25 -158 -41 -45 -11 -223 -56 -275 -71 -179 -51
-246 -70 -270 -79 -11 -4 -47 -15 -80 -25 -33 -9 -76 -23 -95 -30 -19 -7 -60
-20 -90 -30 -30 -9 -64 -21 -75 -25 -11 -5 -51 -19 -90 -31 -38 -12 -74 -26
-79 -31 -6 -4 -22 -8 -37 -8 -15 0 -32 -7 -39 -15 -7 -8 -22 -15 -34 -15 -11
0 -30 -7 -40 -15 -11 -8 -30 -15 -42 -15 -13 0 -25 -4 -29 -9 -3 -5 -20 -13
-37 -17 -18 -3 -39 -10 -48 -15 -8 -5 -37 -18 -65 -29 -27 -11 -58 -25 -67
-30 -10 -6 -22 -10 -28 -10 -6 0 -38 -13 -73 -29 -115 -54 -177 -81 -185 -81
-14 0 -501 -241 -647 -320 -60 -33 -120 -64 -132 -69 -11 -5 -24 -15 -28 -20
-3 -6 -15 -11 -26 -11 -10 0 -19 -4 -19 -9 0 -5 -12 -14 -27 -20 -16 -5 -50
-24 -78 -40 -27 -17 -57 -34 -65 -38 -8 -4 -88 -52 -178 -107 -90 -56 -171
-106 -180 -111 -9 -6 -51 -33 -92 -60 -41 -27 -83 -54 -92 -60 -37 -22 -254
-171 -266 -183 -8 -6 -34 -26 -60 -44 -26 -18 -53 -38 -62 -44 -8 -7 -64 -50
-125 -96 -60 -45 -119 -90 -130 -99 -29 -24 -121 -98 -190 -151 -33 -26 -74
-60 -92 -75 -17 -15 -46 -39 -64 -53 -18 -14 -44 -36 -58 -50 -14 -14 -53 -47
-86 -75 -213 -179 -764 -726 -935 -930 -23 -27 -68 -79 -100 -115 -31 -36 -79
-92 -106 -125 -26 -33 -53 -64 -59 -70 -6 -5 -27 -30 -46 -55 -18 -25 -36 -47
-39 -50 -3 -3 -28 -34 -55 -70 -27 -36 -52 -67 -55 -70 -9 -7 -126 -163 -189
-250 -29 -41 -57 -76 -62 -78 -5 -2 -9 -10 -9 -18 0 -8 -7 -17 -15 -20 -8 -4
-15 -10 -15 -14 0 -5 -25 -44 -55 -87 -31 -43 -58 -86 -61 -95 -4 -10 -10 -18
-15 -18 -5 0 -9 -7 -9 -15 0 -8 -5 -15 -10 -15 -6 0 -14 -8 -17 -17 -4 -10
-30 -52 -57 -93 -55 -81 -71 -107 -82 -130 -4 -8 -10 -17 -13 -20 -7 -6 -28
-39 -41 -65 -6 -11 -19 -33 -30 -50 -11 -16 -23 -38 -26 -47 -4 -10 -10 -18
-15 -18 -5 0 -9 -5 -9 -11 0 -6 -13 -31 -30 -56 -16 -24 -30 -47 -30 -50 0 -3
-17 -33 -39 -67 -21 -34 -41 -71 -45 -83 -4 -13 -12 -23 -17 -23 -5 0 -9 -9
-9 -19 0 -11 -5 -23 -11 -26 -5 -4 -14 -17 -20 -28 -5 -12 -13 -30 -19 -39
-24 -42 -67 -124 -118 -223 -44 -86 -222 -455 -222 -460 0 -2 -14 -34 -31 -72
-17 -37 -37 -81 -44 -98 -7 -16 -25 -55 -39 -86 -14 -31 -26 -61 -26 -67 0 -6
-6 -23 -14 -39 -8 -15 -19 -41 -26 -58 -7 -16 -18 -43 -26 -58 -8 -16 -14 -39
-14 -52 0 -12 -7 -28 -15 -35 -8 -7 -15 -21 -15 -32 0 -11 -6 -32 -14 -46 -26
-52 -46 -103 -46 -120 0 -10 -4 -22 -9 -27 -5 -6 -18 -39 -29 -75 -20 -64 -33
-102 -57 -170 -16 -45 -58 -178 -80 -255 -10 -33 -30 -99 -46 -147 -16 -48
-29 -99 -29 -112 0 -14 -4 -28 -10 -31 -5 -3 -10 -14 -10 -24 0 -10 -6 -41
-14 -67 -14 -47 -29 -105 -60 -231 -8 -32 -20 -85 -26 -118 -7 -33 -18 -82
-25 -110 -19 -74 -35 -152 -44 -220 -5 -33 -14 -73 -20 -88 -6 -16 -11 -46
-11 -67 0 -21 -5 -51 -10 -65 -11 -28 -23 -111 -40 -268 -6 -49 -15 -97 -20
-107 -6 -10 -10 -47 -10 -82 0 -35 -7 -90 -15 -123 -8 -33 -14 -101 -15 -150
0 -50 -5 -106 -11 -125 -6 -19 -15 -111 -19 -205 -4 -93 -13 -256 -20 -361
-13 -192 -12 -254 20 -1059 5 -110 13 -218 19 -240 6 -22 11 -83 11 -135 0
-52 7 -120 15 -150 8 -30 15 -85 15 -121 0 -36 5 -79 10 -96 6 -16 15 -67 20
-114 22 -195 30 -250 40 -269 5 -10 10 -41 10 -68 0 -27 7 -66 15 -85 8 -20
15 -56 15 -81 0 -24 7 -57 15 -72 8 -16 15 -46 15 -67 0 -21 4 -46 10 -56 5
-10 14 -45 19 -77 6 -32 17 -88 26 -124 9 -36 20 -85 25 -110 16 -76 66 -260
73 -267 4 -3 7 -15 7 -26 0 -20 57 -221 70 -247 4 -9 11 -35 15 -58 4 -23 11
-44 16 -48 5 -3 9 -15 9 -27 0 -12 7 -35 15 -51 8 -15 15 -38 15 -50 0 -12 7
-31 15 -42 8 -10 15 -31 15 -46 0 -15 4 -29 9 -32 5 -4 12 -24 16 -46 4 -22
10 -40 15 -40 5 0 11 -18 15 -40 4 -22 11 -42 16 -46 5 -3 9 -13 9 -22 0 -9 7
-30 15 -46 8 -15 15 -36 15 -45 0 -9 7 -25 15 -35 8 -11 15 -30 15 -42 0 -12
7 -27 15 -34 8 -7 15 -24 15 -38 0 -14 6 -33 13 -41 7 -9 20 -36 27 -61 13
-42 22 -64 56 -132 8 -14 14 -31 14 -37 0 -9 17 -50 70 -166 10 -22 30 -67 45
-100 26 -59 54 -119 151 -320 26 -55 51 -101 56 -103 4 -2 8 -9 8 -15 0 -13
61 -139 71 -147 4 -3 17 -27 29 -55 12 -27 25 -52 29 -55 3 -3 14 -21 25 -40
60 -113 100 -183 134 -235 6 -11 15 -27 19 -35 4 -8 52 -88 107 -178 56 -90
106 -171 111 -180 18 -30 70 -107 75 -112 5 -5 78 -113 95 -142 32 -53 90
-134 102 -141 7 -4 13 -12 13 -18 0 -15 257 -361 323 -433 15 -17 27 -33 27
-37 0 -6 14 -23 63 -79 12 -13 40 -48 62 -76 57 -73 223 -264 365 -419 199
-217 482 -497 685 -679 55 -50 105 -95 110 -101 15 -16 92 -75 98 -75 3 0 27
28 53 62 26 35 65 82 87 104 21 23 37 48 35 56 -1 9 -75 80 -163 159 -175 157
-564 542 -690 683 -213 237 -383 438 -514 606 -28 36 -55 70 -60 76 -4 6 -48
64 -97 130 -49 65 -92 124 -97 129 -4 6 -35 48 -67 95 -33 47 -63 90 -67 95
-16 21 -156 235 -248 380 -17 28 -40 64 -51 80 -29 47 -43 69 -51 85 -4 8 -37
66 -75 127 -37 62 -68 115 -68 118 0 3 -11 22 -23 43 -30 48 -132 241 -214
407 -36 72 -69 137 -74 145 -5 8 -12 22 -15 30 -3 8 -10 22 -15 30 -5 8 -12
22 -15 30 -4 8 -18 40 -31 70 -14 30 -31 69 -38 85 -7 17 -27 60 -44 98 -17
37 -31 73 -31 80 0 7 -4 17 -9 22 -5 6 -23 44 -39 85 -60 150 -140 356 -157
405 -9 28 -21 58 -26 67 -5 10 -9 23 -9 29 0 6 -6 25 -13 42 -18 43 -37 95
-47 132 -11 39 -29 91 -46 133 -8 18 -14 44 -14 57 0 13 -4 27 -10 30 -5 3
-10 18 -10 33 -1 15 -7 38 -15 52 -8 14 -14 37 -15 51 0 14 -7 34 -15 45 -8
10 -15 35 -15 54 0 19 -7 44 -15 54 -8 11 -15 36 -15 55 0 20 -7 45 -15 55 -8
11 -15 33 -15 49 0 15 -5 37 -11 48 -6 11 -14 41 -19 67 -5 26 -16 76 -25 112
-9 36 -20 88 -24 115 -3 28 -10 56 -15 63 -4 7 -12 37 -16 65 -5 29 -16 88
-24 132 -47 233 -95 529 -116 710 -37 316 -43 383 -70 790 -13 184 -13 999 0
1140 5 61 14 171 20 245 5 74 17 194 25 265 9 72 20 168 25 215 9 83 17 134
45 295 8 44 17 96 19 115 13 93 25 158 56 295 6 28 15 73 19 100 3 28 10 56
15 63 4 7 12 37 16 65 8 48 15 79 56 242 8 33 19 79 24 103 5 23 14 51 20 61
5 11 10 33 10 48 0 16 7 38 15 49 8 10 15 35 15 54 0 19 7 44 15 54 8 11 15
31 15 45 1 14 7 37 15 51 8 14 14 37 15 52 0 15 5 30 10 33 5 3 10 15 10 25 0
11 6 34 14 52 8 18 22 60 32 93 9 33 23 74 31 92 7 17 13 36 13 42 0 6 4 19 9
29 6 9 19 44 30 77 19 59 30 87 57 152 8 17 14 36 14 41 0 10 32 92 66 167 7
17 27 66 44 109 18 44 35 87 40 95 4 9 14 33 23 54 31 71 45 102 87 192 23 50
48 106 57 125 8 19 19 42 24 50 5 8 12 22 15 30 43 102 255 504 341 645 7 11
15 27 19 35 4 8 25 44 46 80 49 82 44 75 125 203 37 60 73 116 78 125 24 39
149 227 154 232 3 3 35 48 70 100 36 52 103 146 150 209 47 63 91 123 97 133
6 11 22 31 35 46 13 14 40 47 59 73 19 25 55 70 79 100 23 30 57 72 75 93 17
22 47 58 67 80 45 50 110 127 209 243 80 94 104 119 307 325 204 206 433 429
487 473 49 40 57 47 132 115 22 19 80 69 129 110 50 41 99 82 110 92 32 27
125 100 179 142 28 21 53 42 56 46 8 10 268 202 340 250 36 25 97 67 135 96
39 28 75 53 80 55 6 2 50 31 98 64 106 72 136 91 162 105 31 17 58 33 90 56
17 11 37 24 45 27 8 4 29 16 45 26 17 11 48 29 70 41 22 12 42 25 45 29 3 3
21 14 40 25 63 33 145 79 155 86 11 8 81 47 175 97 36 20 69 39 75 44 5 5 17
9 26 9 9 0 22 7 29 15 7 8 21 15 31 15 11 0 19 4 19 10 0 5 12 13 28 16 15 4
44 18 64 31 21 12 44 23 52 23 7 0 19 7 26 15 7 8 17 15 24 15 6 0 38 13 71
29 67 32 186 87 225 103 65 28 96 42 110 50 8 4 22 11 30 14 8 3 23 10 32 15
10 5 23 9 29 9 6 0 25 6 42 14 18 7 68 28 112 46 44 18 94 38 110 45 17 7 53
21 80 30 28 10 55 22 60 25 6 4 21 10 35 13 14 3 63 20 110 37 47 17 100 35
118 40 18 4 38 12 45 18 7 5 26 12 42 15 31 5 77 20 133 43 18 8 44 14 57 14
13 0 27 5 30 10 3 6 18 10 33 10 15 0 40 7 56 15 15 8 40 15 55 15 14 1 37 7
51 15 14 8 39 14 56 15 16 0 39 7 50 15 10 8 35 15 55 15 19 0 40 5 45 10 6 6
35 15 65 21 131 24 149 28 168 38 11 6 33 11 50 11 16 0 42 5 56 10 27 10 137
36 215 50 90 17 218 39 340 59 69 11 163 27 210 36 126 22 124 21 455 54 61 6
162 16 225 21 106 10 428 24 730 32 131 3 727 -10 770 -18 14 -2 81 -9 150
-14 355 -30 472 -43 670 -75 47 -8 105 -16 130 -20 25 -3 81 -12 125 -20 44
-8 113 -20 154 -25 41 -6 79 -14 85 -18 6 -3 34 -9 61 -13 28 -4 79 -14 115
-22 36 -9 92 -21 125 -28 33 -6 69 -16 80 -21 11 -4 45 -13 75 -19 119 -22
136 -26 157 -37 12 -7 34 -12 50 -12 15 -1 39 -7 53 -15 14 -8 38 -14 53 -15
16 0 38 -5 50 -12 12 -6 38 -15 57 -19 19 -4 60 -15 90 -24 30 -9 73 -21 95
-26 22 -6 44 -14 50 -20 5 -5 18 -9 30 -9 11 0 33 -7 49 -15 15 -8 40 -15 55
-15 15 0 32 -5 38 -11 6 -6 26 -14 44 -19 19 -5 72 -23 119 -40 47 -17 94 -34
105 -37 11 -2 34 -11 50 -18 63 -27 83 -35 200 -80 66 -26 134 -52 150 -59 17
-8 52 -21 78 -31 26 -10 50 -22 53 -26 3 -5 16 -9 28 -9 13 0 29 -7 36 -15 7
-8 18 -15 25 -15 7 0 35 -11 62 -24 26 -13 77 -37 113 -54 77 -35 149 -70 170
-81 8 -5 85 -43 170 -85 85 -42 191 -96 235 -121 44 -24 89 -49 100 -54 11 -6
43 -24 70 -41 28 -16 57 -33 65 -37 8 -4 55 -31 103 -60 48 -29 92 -53 97 -53
6 0 10 -4 10 -9 0 -5 10 -13 23 -17 12 -4 36 -17 53 -30 17 -13 34 -24 37 -24
4 0 36 -20 73 -45 36 -25 67 -45 69 -45 8 0 100 -65 103 -72 2 -5 8 -8 13 -8
5 0 27 -12 48 -27 21 -16 47 -34 57 -41 11 -7 82 -57 159 -113 77 -55 154
-110 171 -122 46 -32 234 -176 269 -206 17 -14 51 -42 75 -61 24 -19 64 -52
89 -74 25 -21 55 -45 66 -55 69 -56 142 -119 160 -136 11 -11 42 -38 68 -59
121 -97 803 -777 835 -831 4 -7 51 -64 106 -127 159 -183 181 -209 248 -293
34 -44 68 -86 75 -93 7 -7 13 -17 13 -20 0 -4 10 -18 23 -32 12 -14 45 -54 72
-90 27 -36 53 -69 57 -75 5 -5 42 -57 83 -115 41 -58 79 -110 85 -117 5 -7 10
-15 10 -18 0 -4 6 -13 13 -20 6 -7 27 -35 45 -62 58 -86 105 -157 139 -208 17
-27 36 -55 40 -61 14 -18 33 -49 40 -64 4 -8 9 -17 13 -20 3 -3 19 -27 35 -55
17 -27 35 -59 42 -70 7 -11 15 -27 19 -35 4 -8 17 -28 29 -45 12 -16 25 -40
29 -52 4 -13 12 -23 17 -23 5 0 9 -7 9 -14 0 -8 14 -35 30 -59 17 -25 30 -49
30 -55 0 -6 3 -12 8 -14 4 -1 17 -23 30 -48 13 -25 50 -94 83 -155 58 -109
216 -424 259 -520 12 -27 33 -72 45 -100 55 -119 75 -168 75 -182 0 -7 7 -16
15 -19 8 -4 15 -15 15 -25 0 -10 7 -35 16 -56 9 -21 21 -49 27 -63 5 -14 16
-37 23 -52 8 -14 14 -35 14 -46 0 -11 7 -25 15 -32 8 -7 15 -23 15 -36 0 -12
4 -25 9 -29 5 -3 12 -19 16 -36 4 -17 13 -42 21 -57 8 -15 14 -35 14 -44 0 -9
5 -20 10 -23 6 -3 10 -13 10 -22 0 -8 6 -29 13 -46 24 -55 110 -315 141 -422
10 -33 21 -69 25 -80 10 -25 36 -114 87 -302 9 -32 20 -72 25 -89 5 -16 13
-50 18 -75 5 -24 17 -73 26 -109 9 -36 19 -89 24 -118 4 -28 12 -57 19 -64 7
-7 12 -33 12 -59 0 -26 7 -60 15 -75 8 -16 15 -47 15 -69 0 -22 7 -58 15 -80
8 -22 14 -61 15 -87 0 -26 5 -50 10 -53 6 -3 10 -30 10 -59 0 -29 7 -75 15
-102 8 -27 15 -71 15 -99 0 -27 7 -72 15 -99 8 -27 15 -77 15 -112 0 -35 7
-89 15 -121 8 -31 15 -93 15 -138 0 -44 5 -100 11 -125 13 -54 24 -248 40
-714 9 -268 9 -415 0 -635 -17 -396 -27 -558 -40 -611 -6 -25 -11 -77 -11
-115 0 -39 -7 -97 -15 -128 -8 -32 -15 -86 -15 -120 0 -34 -7 -84 -15 -111 -8
-27 -15 -71 -15 -98 0 -27 -4 -58 -10 -68 -5 -10 -15 -54 -20 -97 -25 -186
-29 -213 -38 -230 -5 -10 -12 -45 -15 -77 -3 -32 -11 -64 -16 -69 -6 -6 -11
-31 -11 -57 -1 -25 -7 -56 -15 -70 -8 -14 -14 -43 -15 -65 0 -23 -4 -45 -9
-50 -9 -9 -20 -53 -41 -169 -5 -27 -14 -54 -20 -60 -5 -5 -10 -23 -10 -38 0
-15 -6 -45 -14 -65 -7 -21 -22 -67 -31 -103 -10 -36 -23 -83 -30 -105 -7 -22
-17 -56 -23 -75 -37 -127 -136 -427 -143 -435 -5 -5 -9 -19 -9 -31 0 -13 -4
-25 -9 -29 -5 -3 -12 -19 -16 -36 -4 -17 -13 -42 -21 -57 -8 -15 -14 -35 -14
-44 0 -9 -4 -20 -10 -23 -5 -3 -10 -13 -10 -22 0 -15 -19 -65 -46 -116 -8 -16
-14 -35 -14 -42 0 -7 -6 -26 -14 -42 -8 -15 -18 -39 -24 -53 -13 -35 -51 -121
-63 -142 -5 -10 -9 -22 -9 -28 0 -10 -54 -131 -71 -160 -5 -8 -12 -22 -15 -30
-15 -38 -27 -64 -94 -205 -71 -151 -93 -194 -182 -360 -26 -49 -52 -99 -58
-110 -5 -11 -23 -42 -40 -70 -16 -27 -35 -62 -41 -78 -6 -15 -15 -27 -20 -27
-5 0 -9 -9 -9 -20 0 -11 -4 -20 -9 -20 -5 0 -13 -10 -17 -23 -4 -12 -16 -35
-28 -52 -30 -43 -45 -67 -55 -91 -19 -43 -284 -450 -383 -587 -21 -29 -51 -73
-68 -99 -18 -27 -36 -48 -41 -48 -5 0 -9 -5 -9 -10 0 -6 -33 -54 -72 -106 -40
-53 -80 -106 -88 -118 -8 -12 -58 -76 -111 -141 -53 -66 -122 -151 -153 -190
-31 -38 -64 -77 -74 -85 -9 -8 -41 -44 -70 -80 -50 -60 -145 -166 -317 -350
-84 -90 -273 -278 -376 -375 -158 -147 -295 -274 -329 -301 -84 -69 -83 -54
-8 -150 26 -34 48 -67 48 -73 0 -6 5 -11 10 -11 6 0 10 -6 10 -13 0 -8 11 -23
24 -36 l23 -22 98 88 c54 48 141 126 194 173 138 121 554 540 706 710 71 80
132 147 135 150 3 3 41 48 85 100 43 52 81 97 85 100 3 3 21 25 40 50 19 25
50 62 69 83 19 20 43 52 53 70 11 17 25 37 32 42 7 6 32 37 56 70 51 70 47 64
102 135 24 30 55 73 70 95 15 22 55 78 89 125 73 101 169 239 169 245 0 8 65
100 73 103 4 2 7 8 7 13 0 6 24 47 54 92 63 97 209 337 256 422 18 33 42 74
52 90 10 17 23 42 29 58 6 15 15 27 20 27 5 0 9 6 9 14 0 7 18 45 39 85 65
118 259 514 333 681 41 93 47 106 63 145 9 22 21 51 27 65 27 63 38 90 64 155
15 39 32 84 39 100 7 17 20 50 30 75 9 25 23 60 31 78 8 18 14 39 14 46 0 8 7
27 15 42 8 16 15 37 15 46 0 9 5 20 10 23 6 3 10 16 10 29 0 12 7 31 15 42 8
10 15 31 15 45 0 14 7 34 15 45 8 10 15 29 15 40 0 12 7 35 15 50 8 16 15 38
15 49 1 11 7 31 15 45 8 14 14 35 15 48 0 12 4 30 9 40 5 9 16 44 26 77 10 33
24 77 31 98 8 20 14 49 14 63 0 14 5 35 12 47 6 12 15 38 20 57 4 19 13 61 20
92 8 31 17 60 21 64 4 4 7 17 7 30 0 12 6 44 14 70 8 27 20 74 26 104 59 273
81 384 100 497 6 34 12 68 15 75 3 7 9 42 15 78 5 36 16 110 25 165 8 55 20
143 25 195 6 52 15 108 20 124 6 16 10 63 10 105 0 42 7 111 15 154 8 43 15
124 15 180 0 56 4 129 10 161 16 102 23 672 10 951 -25 564 -29 621 -39 660
-6 22 -11 78 -11 125 0 47 -5 101 -10 120 -5 20 -14 81 -20 135 -5 55 -16 143
-24 195 -8 52 -19 129 -25 170 -6 41 -15 95 -20 120 -5 25 -17 86 -26 135 -20
115 -34 185 -51 260 -7 33 -20 96 -29 140 -9 44 -22 100 -30 125 -7 25 -18 72
-25 105 -6 33 -18 78 -26 100 -8 23 -14 50 -14 60 0 11 -7 33 -15 49 -8 15
-15 38 -15 49 0 12 -6 39 -14 62 -18 52 -40 125 -61 200 -9 33 -20 68 -26 77
-5 10 -9 28 -9 41 0 13 -7 32 -15 43 -8 10 -15 33 -15 50 0 17 -6 37 -14 43
-8 6 -16 26 -19 44 -5 29 -46 155 -66 202 -5 11 -17 43 -26 70 -9 28 -23 64
-31 82 -8 17 -14 36 -14 42 0 6 -4 19 -10 29 -5 9 -23 52 -40 95 -52 133 -92
230 -118 287 -13 30 -33 73 -42 95 -18 39 -63 137 -122 265 -48 102 -175 357
-222 445 -74 139 -120 220 -126 225 -3 3 -11 16 -17 30 -28 59 -237 405 -259
431 -8 8 -14 19 -14 23 0 4 -11 22 -25 40 -14 18 -25 36 -25 41 0 4 -12 24
-27 44 -16 20 -32 44 -38 53 -16 27 -169 252 -180 264 -5 6 -17 22 -25 34 -38
56 -113 159 -143 195 -19 22 -42 54 -53 70 -10 17 -32 45 -49 63 -16 19 -34
42 -40 52 -5 10 -26 36 -45 57 -19 21 -44 52 -54 68 -11 17 -25 35 -31 40 -7
6 -45 51 -86 100 -68 83 -131 155 -328 375 -107 120 -504 516 -641 641 -63 57
-137 125 -165 150 -43 39 -85 75 -254 214 -13 11 -31 27 -40 35 -9 9 -34 29
-56 45 -22 15 -47 36 -57 45 -23 24 -524 400 -532 400 -4 0 -41 25 -81 55 -41
30 -77 55 -79 55 -2 0 -61 38 -131 85 -70 47 -129 85 -131 85 -3 0 -32 18 -65
40 -33 22 -63 40 -65 40 -3 0 -20 11 -37 24 -18 13 -42 27 -54 31 -13 3 -23
10 -23 15 0 5 -10 12 -22 16 -13 3 -34 15 -48 24 -14 10 -56 34 -94 55 -38 20
-83 45 -100 55 -17 10 -62 35 -101 56 -38 20 -93 50 -122 65 -29 16 -62 34
-75 40 -13 7 -30 16 -38 21 -8 4 -22 11 -30 14 -8 3 -24 10 -34 16 -93 50
-421 208 -434 208 -4 0 -32 12 -62 26 -30 14 -71 33 -90 41 -19 8 -48 21 -65
28 -16 7 -66 27 -110 45 -44 18 -96 39 -115 47 -19 8 -43 18 -52 23 -10 6 -26
10 -36 10 -10 0 -27 7 -38 15 -10 8 -29 15 -40 15 -12 0 -27 7 -34 15 -7 8
-24 15 -39 15 -15 0 -31 4 -36 8 -6 5 -41 19 -80 31 -38 12 -79 26 -90 30 -29
12 -285 94 -390 125 -49 14 -110 33 -135 40 -25 8 -92 26 -150 41 -58 15 -127
33 -155 40 -134 35 -176 46 -245 60 -41 9 -91 20 -110 25 -92 23 -140 32 -195
39 -34 4 -70 13 -82 19 -12 7 -45 12 -73 12 -28 0 -61 5 -73 12 -12 6 -56 15
-97 20 -174 18 -237 27 -263 37 -16 6 -56 11 -91 11 -34 0 -88 7 -119 15 -32
8 -95 15 -140 15 -45 1 -111 7 -147 15 -36 8 -112 14 -170 15 -58 0 -154 7
-215 15 -86 11 -220 14 -605 13 -272 0 -522 -5 -555 -9z"/>
<path d="M20079 21296 c-3 -3 -50 -12 -105 -20 -128 -18 -252 -49 -300 -74
-10 -5 -44 -17 -74 -27 -65 -20 -400 -185 -400 -197 0 -4 -5 -8 -11 -8 -5 0
-42 -24 -82 -53 -40 -29 -88 -63 -108 -75 -20 -12 -47 -32 -60 -45 -13 -13
-64 -57 -114 -99 -102 -86 -374 -367 -445 -460 -26 -34 -105 -133 -115 -144
-5 -6 -17 -22 -25 -34 -8 -13 -34 -49 -57 -80 -23 -32 -53 -76 -66 -97 -14
-22 -32 -46 -39 -54 -8 -8 -17 -21 -21 -29 -4 -8 -13 -24 -20 -35 -7 -11 -25
-42 -42 -70 -16 -27 -32 -52 -35 -55 -9 -6 -100 -158 -100 -165 0 -3 -12 -24
-26 -46 -68 -108 -344 -658 -404 -804 -4 -11 -22 -51 -40 -90 -18 -38 -36 -79
-40 -90 -4 -11 -21 -54 -38 -95 -16 -41 -40 -100 -52 -130 -68 -169 -160 -336
-265 -479 -62 -85 -223 -248 -269 -273 -14 -7 -55 -34 -93 -59 -37 -25 -106
-61 -153 -79 -47 -18 -94 -37 -105 -41 -11 -5 -40 -13 -65 -18 -25 -5 -56 -12
-70 -16 -49 -13 -384 -17 -460 -6 -189 28 -364 65 -453 97 -20 8 -48 14 -60
14 -13 0 -27 4 -33 8 -5 5 -31 17 -59 26 -27 10 -64 24 -82 32 -17 8 -37 14
-43 14 -7 0 -50 18 -96 40 -46 22 -87 40 -90 40 -22 0 -506 242 -679 340 -33
18 -71 40 -85 47 -14 8 -38 23 -55 33 -16 10 -46 27 -65 38 -89 49 -122 68
-220 129 -303 185 -558 348 -804 512 -285 190 -262 174 -317 214 -21 15 -43
27 -48 27 -5 0 -11 3 -13 8 -3 6 -196 140 -263 182 -13 8 -52 33 -87 54 -35
22 -64 43 -66 48 -2 4 -8 8 -14 8 -6 0 -27 12 -47 28 -20 15 -44 32 -53 37
-59 36 -464 311 -466 317 -2 5 -8 8 -12 8 -5 0 -37 19 -72 43 -35 23 -80 51
-100 62 -21 11 -38 22 -38 26 0 4 -8 9 -17 13 -10 3 -27 11 -38 18 -18 12 -27
19 -57 43 -15 13 -156 100 -283 176 -33 20 -131 79 -218 133 -87 53 -160 96
-163 96 -3 0 -18 8 -32 19 -30 21 -87 54 -147 84 -22 11 -53 30 -70 42 -16 11
-46 29 -65 39 -19 10 -61 32 -92 49 -56 31 -212 112 -350 183 -36 19 -71 34
-77 34 -6 0 -11 5 -11 10 0 6 -5 10 -11 10 -11 0 -61 22 -174 75 -88 42 -148
68 -290 125 -44 18 -94 39 -112 46 -17 8 -38 14 -46 14 -9 0 -37 9 -64 21
-102 44 -214 81 -313 104 -41 9 -84 20 -95 25 -11 4 -56 15 -100 25 -44 10
-93 21 -110 26 -16 5 -75 13 -130 19 -55 5 -127 14 -160 19 -68 11 -365 14
-389 5 -23 -9 -22 -86 2 -107 9 -9 42 -19 72 -22 53 -6 134 -27 175 -45 11 -5
31 -12 45 -15 24 -6 127 -55 160 -75 8 -5 47 -28 85 -51 108 -64 208 -131 232
-156 12 -13 24 -23 26 -23 3 0 18 -11 33 -24 16 -14 79 -66 139 -116 206 -171
537 -509 935 -955 74 -82 137 -152 141 -155 3 -3 34 -39 69 -80 35 -41 67 -77
71 -80 3 -3 46 -50 94 -105 48 -55 141 -156 205 -225 65 -69 130 -141 146
-160 16 -19 40 -47 54 -61 14 -15 91 -96 172 -180 260 -273 410 -421 708 -703
30 -29 98 -89 150 -135 52 -46 111 -97 130 -115 62 -55 291 -238 425 -338 6
-4 48 -36 95 -69 47 -34 87 -65 90 -68 9 -11 317 -211 324 -211 3 0 34 -17 68
-38 35 -21 70 -41 78 -45 8 -4 29 -16 46 -26 77 -47 263 -144 339 -176 22 -10
69 -31 105 -48 36 -16 74 -34 85 -38 11 -4 47 -20 79 -34 33 -14 89 -36 125
-47 36 -12 75 -28 86 -35 11 -7 28 -13 37 -13 10 0 26 -4 36 -9 9 -6 44 -17
77 -26 33 -9 81 -22 106 -30 26 -8 53 -15 62 -15 8 0 28 -7 43 -15 16 -8 38
-15 49 -15 25 0 163 -29 190 -41 11 -4 52 -12 90 -18 39 -5 117 -16 175 -24
93 -14 327 -34 465 -40 35 -1 51 -6 53 -17 4 -23 -228 -254 -346 -344 -34 -26
-77 -61 -94 -77 -18 -16 -38 -29 -44 -29 -7 0 -14 -4 -16 -8 -5 -12 -125 -102
-136 -102 -5 0 -15 -6 -21 -14 -7 -8 -26 -22 -44 -31 -18 -9 -45 -24 -62 -35
-65 -41 -236 -128 -410 -210 -130 -60 -154 -70 -178 -70 -13 0 -27 -4 -33 -9
-5 -4 -34 -16 -64 -26 -30 -10 -71 -24 -90 -31 -38 -14 -64 -22 -210 -61 -91
-24 -168 -42 -292 -67 -48 -9 -55 -13 -45 -26 11 -14 166 -119 197 -133 8 -4
33 -18 55 -30 63 -36 157 -84 195 -100 54 -23 193 -67 211 -67 10 0 30 -6 46
-14 55 -28 175 -41 388 -41 260 0 346 11 550 70 33 10 76 22 95 27 52 15 187
67 256 99 34 16 67 29 73 29 13 0 101 42 166 80 22 13 83 45 135 72 52 27 109
60 127 74 17 13 34 24 37 24 3 0 35 18 71 40 36 22 69 40 74 40 5 0 11 4 13 8
2 4 32 25 68 47 36 21 75 47 87 58 21 18 48 36 82 53 14 7 208 137 384 258 49
34 96 66 105 71 9 6 25 18 36 27 11 10 51 37 89 60 38 24 80 50 92 58 29 19
214 131 328 198 48 29 91 52 96 52 5 0 11 4 13 8 3 9 193 102 207 102 5 0 22
6 38 14 45 23 74 33 138 51 33 9 78 23 100 30 75 26 211 45 313 45 82 0 102 3
102 14 0 8 -4 18 -10 21 -5 3 -10 17 -10 30 0 28 -44 150 -71 195 -5 8 -13 24
-18 35 -34 75 -165 168 -251 178 -63 8 -209 -17 -305 -52 -138 -50 -248 -85
-291 -91 -28 -4 -61 -13 -72 -19 -26 -14 -139 -15 -147 -1 -10 16 14 34 111
85 110 58 196 105 209 115 6 4 42 24 80 45 39 21 122 72 185 114 63 42 119 78
125 80 17 7 100 66 103 74 2 4 8 7 12 7 9 0 141 87 150 99 3 4 25 22 50 41
124 94 285 223 341 274 25 22 65 57 90 76 130 103 529 503 712 714 10 12 33
37 50 56 28 30 199 235 234 280 13 17 101 125 153 190 106 130 736 978 940
1263 18 26 37 47 42 47 4 0 8 4 8 10 0 9 89 125 170 220 21 25 62 74 91 110
143 176 422 450 573 563 28 21 51 42 50 48 -3 25 -5 29 -16 29 -6 0 -39 13
-72 28 -127 60 -213 85 -406 118 -92 17 -519 32 -531 20z m496 -123 c57 -9 89
-17 178 -49 20 -8 48 -14 61 -14 13 0 34 -9 47 -20 l24 -21 -40 -32 c-75 -61
-322 -316 -410 -422 -22 -27 -67 -81 -100 -120 -33 -40 -88 -108 -122 -152
-35 -44 -72 -90 -83 -103 -11 -13 -20 -26 -20 -29 0 -3 -16 -24 -35 -46 -19
-22 -35 -45 -35 -51 0 -6 -8 -18 -17 -25 -9 -8 -50 -59 -90 -114 -40 -55 -77
-104 -81 -110 -44 -56 -212 -287 -212 -291 0 -3 -6 -11 -12 -19 -19 -20 -61
-76 -73 -96 -11 -19 -336 -451 -345 -459 -3 -3 -28 -34 -55 -70 -27 -36 -54
-70 -60 -76 -14 -16 -43 -51 -90 -109 -21 -28 -42 -52 -45 -55 -3 -3 -27 -32
-52 -65 -25 -33 -56 -72 -69 -86 -13 -14 -42 -46 -64 -70 -22 -25 -74 -83
-115 -129 -67 -74 -287 -306 -395 -415 -22 -22 -69 -65 -104 -95 -34 -30 -93
-84 -130 -118 -66 -64 -132 -119 -290 -245 -47 -38 -96 -77 -109 -88 -22 -19
-78 -60 -122 -89 -13 -8 -48 -33 -79 -55 -31 -22 -81 -56 -111 -75 -30 -19
-57 -37 -60 -40 -12 -13 -101 -70 -109 -70 -5 0 -11 -4 -13 -8 -1 -5 -32 -25
-68 -46 -36 -20 -74 -42 -85 -49 -69 -42 -157 -92 -281 -158 -146 -78 -199
-104 -254 -128 -30 -13 -75 -33 -99 -43 l-45 -20 25 -19 c13 -10 27 -19 31
-19 4 0 27 -13 51 -30 25 -16 53 -30 64 -30 10 0 25 -6 32 -12 8 -9 54 -13
154 -13 144 0 155 2 307 51 41 14 89 29 105 34 27 7 55 17 120 40 53 19 126
34 183 38 104 6 170 -37 231 -151 46 -86 43 -97 -26 -97 -32 -1 -76 -7 -98
-15 -22 -8 -49 -15 -60 -15 -45 0 -147 -31 -252 -76 -17 -8 -37 -14 -45 -14
-8 0 -18 -4 -24 -9 -5 -4 -34 -17 -64 -27 -30 -10 -62 -23 -70 -30 -8 -6 -49
-28 -90 -48 -41 -20 -106 -54 -145 -77 -38 -22 -82 -45 -97 -52 -16 -6 -28
-15 -28 -19 0 -4 -6 -8 -14 -8 -8 0 -21 -6 -28 -12 -17 -15 -47 -36 -68 -45
-8 -4 -17 -10 -20 -14 -3 -3 -48 -34 -100 -67 -52 -34 -100 -65 -105 -69 -43
-33 -105 -73 -114 -73 -7 0 -14 -7 -17 -15 -4 -8 -10 -15 -15 -15 -10 0 -103
-62 -107 -72 -2 -5 -8 -8 -14 -8 -6 0 -27 -13 -48 -30 -21 -16 -42 -30 -47
-30 -4 0 -20 -10 -33 -22 -29 -26 -118 -88 -126 -88 -3 0 -20 -11 -38 -25 -18
-14 -35 -25 -39 -25 -7 0 -130 -80 -216 -141 -20 -14 -43 -28 -51 -32 -8 -4
-28 -16 -45 -27 -16 -11 -37 -23 -45 -27 -8 -4 -53 -30 -100 -58 -91 -55 -366
-191 -475 -235 -11 -4 -53 -22 -94 -39 -40 -17 -84 -31 -97 -31 -12 0 -25 -4
-28 -9 -3 -5 -23 -12 -43 -16 -21 -4 -42 -10 -48 -15 -11 -9 -110 -28 -205
-41 -36 -4 -89 -13 -119 -18 -123 -25 -422 -4 -556 37 -16 5 -50 15 -75 22
-25 6 -58 18 -75 25 -16 7 -55 23 -85 35 -179 72 -222 110 -144 125 20 3 44
10 53 15 9 5 36 14 61 20 25 6 63 16 85 21 22 6 44 14 49 20 6 5 20 9 32 9 12
0 35 7 50 15 16 8 36 15 45 15 8 0 19 4 25 8 5 5 38 19 74 32 36 13 69 27 74
32 6 4 16 8 23 8 7 0 57 21 110 46 142 66 196 94 328 171 22 12 47 26 55 30
44 21 308 207 385 272 171 143 334 304 427 424 111 141 120 154 103 160 -7 3
-136 6 -285 6 -149 1 -275 3 -280 6 -4 2 -52 9 -106 15 -55 6 -115 14 -134 19
-19 5 -69 15 -110 21 -130 20 -138 22 -385 85 -55 14 -109 30 -120 34 -43 17
-91 33 -115 38 -14 3 -29 9 -35 13 -5 4 -35 15 -65 25 -54 17 -175 64 -235 91
-148 65 -332 154 -400 192 -27 16 -85 47 -127 70 -76 40 -109 60 -341 209
-133 86 -151 98 -241 166 -38 29 -94 70 -125 91 -31 22 -58 42 -61 46 -3 3
-14 13 -26 21 -12 8 -43 33 -70 56 -27 23 -85 70 -129 105 -44 34 -96 77 -115
94 -19 17 -98 87 -175 155 -207 182 -804 782 -1030 1034 -44 49 -114 125 -155
170 -41 44 -95 103 -119 130 -23 28 -64 73 -90 100 -25 28 -75 84 -111 125
-36 41 -69 80 -75 86 -21 23 -73 82 -155 174 -46 52 -116 129 -155 170 -61 64
-187 200 -220 237 -61 68 -451 454 -545 538 -122 109 -397 317 -459 348 -53
25 -112 65 -109 73 6 17 47 11 288 -41 118 -25 144 -32 220 -59 41 -14 83 -26
92 -26 17 0 119 -39 171 -66 16 -8 37 -14 48 -14 11 0 27 -4 37 -10 9 -5 40
-19 67 -30 28 -11 58 -25 67 -30 10 -6 23 -10 29 -10 6 0 27 -7 47 -16 41 -18
84 -37 135 -58 54 -23 554 -273 672 -336 61 -33 117 -62 125 -66 14 -7 106
-61 155 -91 11 -7 27 -15 35 -20 8 -4 55 -31 103 -60 48 -29 90 -53 93 -53 3
0 20 -11 37 -24 18 -13 59 -38 92 -56 33 -18 67 -39 76 -46 8 -8 21 -14 27
-14 7 0 12 -4 12 -10 0 -5 5 -10 11 -10 6 0 78 -44 160 -97 213 -140 344 -224
393 -253 23 -14 64 -41 92 -60 27 -19 57 -39 66 -45 9 -5 57 -37 105 -70 48
-33 96 -64 105 -70 10 -5 69 -46 133 -90 64 -44 123 -84 133 -90 9 -5 33 -22
52 -36 19 -14 42 -28 50 -31 8 -3 67 -41 130 -84 63 -42 176 -118 250 -168 74
-50 137 -94 138 -98 2 -5 7 -8 12 -8 4 0 49 -28 100 -62 50 -35 99 -67 108
-73 9 -5 19 -12 22 -16 3 -3 23 -16 45 -29 48 -29 208 -133 215 -140 3 -3 14
-11 25 -17 11 -7 70 -43 130 -80 61 -37 139 -87 175 -111 35 -24 74 -48 85
-53 11 -5 34 -18 50 -29 17 -10 49 -29 73 -41 23 -13 42 -26 42 -31 0 -4 5 -8
11 -8 6 0 61 -31 122 -68 62 -38 119 -71 127 -75 8 -4 29 -15 45 -25 46 -28
165 -93 220 -120 148 -73 212 -106 225 -116 13 -11 110 -55 190 -88 14 -5 51
-23 82 -39 32 -16 64 -29 72 -29 8 0 27 -6 43 -14 15 -8 39 -19 53 -24 14 -6
41 -17 60 -25 19 -8 48 -20 65 -26 70 -29 241 -81 266 -81 11 0 27 -4 37 -9
89 -46 360 -86 582 -85 207 0 390 29 508 79 284 121 468 272 641 527 32 46 61
91 64 99 4 8 16 28 27 44 19 29 113 218 131 263 5 12 13 32 18 45 6 12 24 58
41 102 17 44 38 96 47 115 9 19 22 49 29 65 39 90 55 127 87 195 19 41 37 82
41 90 3 8 10 22 15 30 5 8 28 56 51 105 75 160 234 463 249 475 4 3 12 16 18
30 7 14 26 48 42 75 16 28 39 67 50 87 60 110 356 532 411 586 8 9 25 28 37
44 85 116 364 396 488 491 44 33 85 65 90 69 48 39 182 133 220 154 97 54 240
126 285 144 30 12 69 28 85 35 66 28 185 65 209 65 13 0 37 5 53 11 84 34 486
47 658 22z"/>
<path d="M15865 14254 c-55 -7 -119 -18 -142 -24 -23 -5 -56 -10 -74 -10 -17
0 -52 -7 -78 -15 -25 -8 -75 -21 -111 -30 -36 -9 -79 -21 -96 -26 -17 -5 -36
-9 -43 -9 -7 0 -27 -6 -44 -14 -18 -8 -72 -29 -122 -46 -97 -35 -102 -37 -185
-73 -30 -13 -80 -35 -110 -47 -93 -39 -410 -203 -506 -262 -50 -31 -101 -59
-112 -62 -12 -4 -22 -12 -22 -17 0 -5 -5 -9 -11 -9 -17 0 -287 -177 -364 -238
-5 -4 -53 -40 -105 -79 -125 -94 -267 -209 -360 -293 -41 -37 -91 -80 -110
-96 -126 -104 -522 -520 -665 -699 -26 -33 -53 -64 -59 -70 -55 -48 -406 -561
-406 -592 0 -4 -17 -43 -38 -88 -48 -101 -61 -136 -75 -205 -23 -114 -7 -173
53 -202 58 -28 95 -23 140 18 33 31 130 161 165 222 57 98 266 392 385 541 41
52 105 132 142 179 246 306 609 688 808 850 25 20 52 43 61 52 8 8 30 26 48
40 18 14 47 37 65 51 55 45 186 139 194 139 4 0 18 10 32 23 32 28 132 95 170
113 8 4 31 17 50 29 89 55 420 225 438 225 6 0 23 6 39 14 42 22 143 66 149
66 3 0 20 6 37 14 18 8 79 29 137 47 58 18 112 36 120 40 8 4 47 15 85 24 39
9 95 22 125 30 125 31 325 54 560 63 294 12 536 -11 675 -65 87 -34 112 -47
162 -84 29 -22 56 -39 60 -39 14 -1 97 -108 130 -168 89 -161 99 -376 29 -625
-30 -109 -136 -341 -198 -435 -15 -24 -28 -45 -28 -48 0 -3 -11 -20 -25 -38
-14 -18 -25 -36 -25 -40 0 -5 -63 -97 -97 -141 -4 -6 -23 -33 -42 -60 -19 -28
-39 -54 -45 -60 -7 -5 -33 -37 -58 -70 -88 -113 -319 -361 -414 -443 -34 -30
-79 -70 -101 -90 -22 -20 -57 -50 -78 -67 -21 -16 -61 -49 -89 -72 -28 -23
-137 -98 -241 -167 -105 -69 -194 -129 -200 -134 -14 -10 -121 -66 -218 -114
-131 -64 -184 -87 -295 -124 -45 -15 -85 -24 -89 -21 -6 7 10 69 28 112 10 23
31 83 59 166 10 31 23 65 28 75 6 11 25 55 42 99 58 143 127 292 322 695 39
80 81 168 93 195 12 28 31 70 43 95 11 25 32 79 47 120 52 144 20 265 -98 381
-75 73 -188 138 -292 169 -166 50 -294 76 -417 85 -181 13 -229 -26 -372 -308
-98 -194 -167 -363 -235 -577 -17 -52 -36 -108 -42 -125 -6 -16 -14 -46 -19
-65 -4 -19 -15 -62 -25 -95 -17 -61 -39 -149 -55 -220 -5 -22 -16 -67 -26
-100 -15 -56 -25 -99 -54 -250 -6 -33 -16 -74 -21 -91 -5 -17 -9 -41 -9 -53 0
-13 -6 -50 -14 -84 -38 -164 -46 -204 -46 -231 0 -16 -6 -63 -14 -105 -30
-161 -48 -333 -67 -631 -12 -191 -5 -572 12 -660 6 -30 17 -89 26 -130 8 -41
21 -109 29 -150 9 -41 22 -97 29 -125 8 -27 21 -79 30 -115 17 -70 58 -203 79
-260 8 -19 21 -60 31 -90 9 -30 25 -73 35 -95 10 -22 28 -65 40 -95 40 -97 72
-164 99 -205 14 -22 33 -54 42 -71 10 -17 35 -58 56 -91 117 -185 194 -243
316 -243 122 0 154 40 143 183 -7 88 -12 118 -42 239 -8 32 -14 72 -14 90 0
18 -4 49 -10 68 -10 38 -23 127 -46 310 -16 128 -30 616 -19 686 8 57 30 68
58 28 12 -16 39 -47 62 -69 50 -49 108 -62 335 -75 85 -5 207 -13 270 -19 158
-14 376 -28 695 -46 287 -16 513 -38 634 -61 40 -8 87 -14 103 -14 17 0 47 -4
67 -9 20 -6 70 -17 111 -26 292 -62 432 -99 535 -140 17 -7 50 -20 75 -30 81
-32 164 -76 228 -123 59 -44 61 -47 45 -63 -10 -9 -83 -37 -163 -63 -80 -26
-161 -53 -180 -60 -19 -7 -60 -21 -90 -31 -30 -9 -62 -19 -70 -22 -45 -17
-173 -63 -230 -82 -36 -12 -74 -27 -85 -32 -36 -16 -160 -61 -185 -66 -14 -3
-30 -10 -37 -15 -7 -6 -27 -14 -45 -18 -42 -11 -168 -57 -190 -70 -10 -5 -24
-10 -33 -10 -8 0 -29 -6 -47 -14 -46 -20 -98 -39 -203 -77 -49 -18 -94 -36
-99 -41 -6 -4 -19 -8 -31 -8 -12 0 -25 -4 -31 -8 -5 -5 -38 -19 -74 -32 -36
-13 -69 -27 -74 -32 -6 -4 -16 -8 -24 -8 -8 0 -28 -6 -45 -14 -18 -8 -59 -23
-92 -34 -55 -19 -78 -27 -140 -53 -11 -4 -56 -22 -100 -40 -44 -17 -94 -37
-112 -45 -17 -8 -36 -14 -42 -14 -6 0 -19 -4 -29 -10 -18 -9 -50 -23 -142 -59
-30 -12 -64 -26 -75 -30 -11 -5 -40 -16 -65 -26 -65 -25 -78 -30 -153 -64 -38
-17 -72 -31 -77 -31 -5 0 -21 -7 -37 -15 -43 -22 -141 -65 -148 -65 -4 0 -21
-6 -38 -14 -18 -7 -57 -24 -87 -36 -52 -21 -115 -49 -205 -90 -22 -10 -69 -30
-105 -45 -197 -82 -763 -364 -910 -454 -19 -11 -45 -25 -58 -31 -12 -5 -47
-26 -77 -45 -31 -19 -57 -35 -60 -35 -2 0 -24 -13 -48 -30 -25 -16 -48 -30
-51 -30 -3 0 -24 -12 -45 -27 -21 -16 -49 -35 -61 -43 -137 -91 -352 -267
-383 -313 -9 -12 -29 -38 -46 -57 -17 -19 -45 -63 -62 -98 -30 -61 -31 -66
-26 -165 5 -108 16 -166 41 -233 16 -44 64 -135 76 -144 3 -3 19 -23 36 -44
40 -54 164 -159 227 -191 66 -35 77 -41 107 -53 14 -6 56 -25 93 -41 38 -17
73 -31 78 -31 5 0 20 -6 32 -14 12 -7 58 -21 102 -31 44 -9 94 -21 110 -25 17
-5 55 -11 85 -15 30 -3 80 -10 110 -15 30 -5 150 -17 267 -26 184 -15 230 -16
350 -4 203 18 390 45 528 75 39 8 86 18 105 21 19 3 58 12 85 19 116 34 264
79 320 97 33 11 74 24 90 28 35 10 162 56 290 106 211 82 226 89 348 143 38
17 70 31 72 31 2 0 34 14 72 31 37 17 84 38 103 46 55 24 100 47 160 80 30 16
87 47 125 67 39 21 93 51 120 67 28 16 57 32 65 36 26 10 343 206 395 243 28
20 57 39 65 43 8 4 47 30 85 57 39 28 86 62 106 75 20 13 42 29 50 37 8 7 43
36 79 63 116 88 164 128 300 250 160 143 337 330 440 465 19 25 37 47 41 50 5
5 73 106 94 143 8 14 47 90 94 187 4 8 16 42 25 75 10 33 24 81 32 107 8 26
14 56 14 68 0 12 5 31 11 43 15 28 33 238 30 357 -4 159 -32 302 -83 420 -10
25 -23 54 -27 65 -12 28 -80 166 -94 190 -93 155 -191 287 -277 373 -245 243
-482 400 -875 577 -112 50 -177 76 -255 101 -30 9 -64 21 -75 25 -22 10 -197
56 -263 70 -24 5 -48 12 -55 16 -6 4 -29 10 -52 14 -22 4 -78 17 -125 29 -47
12 -105 25 -130 30 -58 11 -144 32 -245 58 -44 11 -92 23 -107 27 -17 3 -28
12 -28 22 0 10 12 28 28 41 226 194 666 638 822 832 29 36 58 70 64 75 23 20
235 313 300 415 38 58 77 117 87 132 10 15 19 30 19 33 0 3 25 47 56 98 30 50
60 100 65 110 28 51 142 282 174 352 52 114 52 114 75 175 11 30 25 64 30 75
15 34 66 196 84 270 9 39 21 84 26 100 34 110 51 446 30 570 -12 70 -46 197
-61 225 -4 8 -10 22 -13 30 -4 8 -15 29 -26 45 -11 17 -23 38 -26 48 -4 9 -9
17 -13 17 -3 0 -12 12 -18 28 -14 31 -131 155 -181 192 -19 14 -40 31 -48 38
-24 23 -217 117 -279 136 -33 10 -78 24 -100 31 -174 56 -689 83 -940 49z
m2041 -5842 c12 -8 22 -55 31 -144 4 -44 0 -71 -17 -115 -12 -32 -24 -67 -28
-78 -10 -34 -82 -147 -131 -205 -76 -90 -183 -192 -289 -274 -15 -11 -31 -24
-37 -29 -5 -4 -39 -30 -75 -57 -36 -28 -69 -54 -75 -58 -10 -8 -300 -199 -360
-238 -39 -25 -56 -35 -102 -60 -21 -12 -56 -32 -78 -44 -131 -74 -505 -266
-566 -290 -49 -19 -85 -34 -162 -69 -38 -17 -72 -31 -77 -31 -5 0 -21 -6 -37
-14 -15 -8 -46 -22 -68 -31 -22 -9 -48 -20 -57 -25 -10 -6 -23 -10 -29 -10 -6
0 -25 -6 -42 -13 -42 -18 -153 -56 -197 -68 -19 -6 -44 -14 -55 -19 -11 -5
-83 -29 -160 -54 -127 -41 -199 -63 -365 -112 -30 -9 -73 -22 -95 -29 -22 -7
-76 -20 -120 -29 -44 -10 -96 -21 -115 -26 -19 -5 -69 -16 -110 -25 -41 -9
-104 -22 -140 -30 -111 -24 -313 -60 -475 -84 -209 -32 -661 -31 -735 1 -47
20 -51 23 -68 50 -15 25 -15 29 4 63 10 21 39 55 64 78 47 42 220 160 270 183
8 4 31 18 51 30 19 12 74 42 121 67 47 25 103 56 125 70 37 23 242 124 378
187 86 39 166 76 360 165 44 21 94 43 110 50 17 7 55 24 85 38 30 14 78 34
105 46 66 29 78 34 158 70 38 17 74 31 81 31 6 0 16 4 22 9 12 12 225 101 241
101 7 0 29 7 50 16 46 20 55 24 168 69 50 19 98 40 107 45 10 6 22 10 27 10 5
0 43 16 85 35 41 19 131 57 198 85 68 28 132 55 143 60 48 21 144 59 215 85
66 25 175 67 205 81 17 7 64 25 105 40 41 15 89 32 105 39 17 7 71 27 120 45
50 18 113 43 140 56 28 12 63 26 78 29 15 4 30 11 33 16 3 5 15 9 27 9 13 0
31 6 42 14 11 7 31 16 45 19 14 3 63 19 110 37 47 17 96 35 110 40 14 5 50 18
80 30 30 12 64 24 75 27 11 3 34 11 52 19 17 8 36 14 42 14 6 0 19 4 29 9 16
8 57 25 147 58 22 8 54 21 70 28 36 16 37 17 51 7z"/>
<path d="M8869 6570 c-9 -5 -42 -12 -74 -15 -33 -3 -64 -10 -69 -15 -6 -6 -18
-10 -28 -10 -25 0 -137 -61 -213 -115 -54 -38 -145 -128 -185 -181 -30 -40
-100 -170 -100 -185 0 -6 -6 -25 -14 -42 -18 -41 -46 -199 -46 -257 0 -50 31
-216 51 -270 55 -155 172 -306 304 -395 33 -22 62 -42 65 -45 12 -13 123 -61
152 -67 18 -3 38 -9 43 -13 6 -4 57 -15 113 -24 98 -17 109 -17 200 0 187 34
335 103 453 212 67 61 169 192 169 215 0 8 7 20 15 27 8 7 15 20 15 29 0 10 7
26 15 37 8 10 15 30 15 44 0 14 7 36 16 48 13 19 16 54 16 201 0 144 -3 185
-16 209 -9 17 -16 39 -16 50 0 10 -7 27 -15 38 -8 10 -15 29 -15 42 0 12 -4
22 -10 22 -5 0 -10 5 -10 11 0 26 -77 135 -139 198 -64 65 -132 121 -147 121
-4 0 -15 6 -23 14 -25 22 -132 76 -150 76 -10 0 -21 4 -26 9 -27 24 -315 50
-346 31z"/>
<path d="M20822 6569 c-13 -5 -42 -11 -65 -14 -23 -3 -46 -10 -51 -15 -6 -6
-18 -10 -29 -10 -65 0 -258 -129 -349 -235 -39 -44 -73 -87 -76 -95 -3 -8 -18
-35 -33 -60 -36 -60 -75 -184 -90 -292 -19 -134 9 -308 72 -443 112 -242 354
-424 617 -466 165 -26 192 -24 357 23 72 21 177 67 183 81 2 4 8 7 14 7 33 0
218 175 254 240 10 19 25 39 32 43 6 4 12 16 12 26 0 10 7 24 15 31 8 7 15 20
15 30 0 9 3 20 7 24 23 23 62 219 62 311 1 82 -44 305 -61 305 -5 0 -8 8 -8
18 -1 9 -12 35 -25 57 -14 22 -28 47 -32 55 -12 29 -115 149 -150 177 -20 15
-48 37 -62 49 -59 47 -188 114 -219 114 -10 0 -22 4 -28 10 -5 5 -35 12 -67
15 -33 3 -67 10 -77 15 -23 13 -187 12 -218 -1z"/>
</g>
</svg>
