<?xml version="1.0" standalone="no"?>
<!DOCTYPE svg PUBLIC "-//W3C//DTD SVG 20010904//EN"
 "http://www.w3.org/TR/2001/REC-SVG-20010904/DTD/svg10.dtd">
<svg version="1.0" xmlns="http://www.w3.org/2000/svg"
viewBox="0 0 4724.000000 1028.000000"
 preserveAspectRatio="xMidYMid meet">

<g transform="translate(0.000000,1028.000000) scale(0.100000,-0.100000)"
fill="#000000" stroke="none">
<path d="M17787 6502 l-27 -28 0 -516 c0 -350 3 -519 10 -523 7 -5 8 -11 1
-19 -6 -7 -10 -250 -10 -661 0 -549 2 -653 14 -671 12 -19 12 -24 0 -34 -22
-18 -21 -237 0 -267 10 -14 12 -24 5 -28 -5 -3 -10 -21 -10 -39 0 -23 9 -41
33 -64 32 -31 35 -32 127 -32 82 0 96 3 117 22 13 12 23 17 23 10 0 -19 100
-32 235 -31 125 1 131 2 158 27 32 30 37 85 10 114 -15 17 -15 20 7 43 l24 25
-24 43 c-12 23 -30 50 -38 60 -14 15 -14 19 0 30 25 19 33 105 13 127 -16 17
-14 21 19 58 l36 39 0 248 c0 236 1 247 18 233 14 -13 60 -17 267 -20 l250 -5
55 -31 c30 -18 58 -32 61 -32 3 0 16 -25 28 -55 19 -46 27 -55 49 -55 24 0 24
-1 9 -18 -20 -22 -22 -63 -5 -80 7 -7 25 -12 40 -12 17 0 31 -7 35 -15 9 -26
59 -45 116 -45 44 0 58 4 77 25 18 20 22 31 17 61 -8 45 4 63 38 56 19 -3 25
-10 25 -32 0 -15 9 -35 20 -45 14 -12 20 -31 20 -58 0 -38 -1 -39 -18 -24 -12
11 -36 17 -69 17 -48 0 -54 -3 -92 -46 -23 -26 -41 -53 -41 -60 0 -17 -24 -18
-50 -2 -17 11 -24 9 -50 -18 -31 -30 -31 -31 -21 -94 6 -35 18 -97 27 -137
l16 -73 37 0 c29 0 39 -5 53 -29 14 -26 14 -32 2 -42 -8 -7 -14 -30 -14 -58 0
-40 5 -52 33 -79 38 -37 88 -43 119 -15 17 15 20 15 41 -5 34 -32 86 -29 120
6 32 34 34 49 6 78 l-21 22 30 16 c16 8 32 12 36 9 3 -4 6 -26 6 -50 0 -36 6
-50 29 -74 31 -30 59 -37 78 -18 8 8 13 8 17 0 4 -6 37 -11 75 -11 58 0 71 3
89 23 12 13 22 30 22 39 0 9 12 18 30 22 28 5 30 9 30 49 0 31 -6 49 -20 62
-12 10 -18 25 -15 33 5 13 -20 103 -77 277 -11 33 -23 98 -28 145 -9 93 -38
279 -45 290 -2 4 -11 42 -20 85 -18 85 -47 153 -70 161 -8 3 -18 22 -21 42 -5
26 -25 55 -73 104 l-66 67 40 18 c57 25 184 156 223 230 33 63 62 137 88 228
24 82 10 485 -16 485 -4 0 -11 15 -14 34 -9 49 -108 202 -174 269 -108 110
-179 140 -233 98 -30 -22 -77 -32 -86 -17 -4 6 -6 23 -4 39 4 41 -42 82 -109
96 -84 18 -367 30 -642 28 -225 -2 -248 -4 -267 -21 -21 -19 -22 -19 -44 2
-23 21 -29 22 -344 22 l-320 -1 -26 -27z m869 -621 c181 1 404 -10 498 -24 85
-14 92 -16 123 -53 56 -66 73 -111 73 -197 0 -42 -4 -79 -10 -82 -5 -3 -10
-21 -10 -39 0 -71 -97 -155 -216 -187 -66 -17 -119 -22 -324 -26 -202 -4 -248
-8 -262 -21 -17 -14 -18 2 -18 323 0 327 1 338 18 322 15 -14 39 -17 128 -16z"/>
<path d="M20735 6510 c-18 -19 -20 -40 -22 -173 l-3 -152 46 -46 46 -46 -42
-29 c-39 -28 -41 -31 -37 -72 3 -23 1 -44 -3 -47 -4 -2 -8 -83 -9 -179 -1
-144 2 -176 14 -186 14 -12 14 -15 0 -30 -14 -15 -15 -111 -12 -856 3 -475 8
-862 14 -892 7 -41 6 -55 -4 -63 -26 -22 -15 -73 22 -109 l35 -34 31 30 c27
26 36 29 85 26 46 -3 60 0 79 18 22 20 26 21 86 9 35 -6 72 -19 81 -27 12 -10
30 -13 56 -10 24 4 45 0 57 -8 10 -8 40 -14 65 -14 41 0 50 5 89 44 l44 44 24
-29 c14 -16 33 -29 43 -29 10 0 23 -7 30 -15 18 -22 172 -21 190 0 12 14 15
14 30 0 13 -12 50 -15 206 -14 104 1 197 6 208 11 12 7 22 6 29 -1 8 -8 112
-11 327 -11 l317 0 21 23 c22 23 22 29 22 297 -1 336 5 320 -131 320 -63 0
-90 -4 -98 -14 -11 -13 -17 -12 -47 0 -25 10 -71 15 -152 14 -64 0 -281 0
-482 0 -358 -1 -365 -1 -387 -22 -13 -12 -23 -30 -23 -40 0 -11 -7 -18 -20
-18 -11 0 -20 -7 -20 -15 0 -8 -8 -15 -18 -15 -11 0 -27 -9 -38 -21 -19 -21
-19 -16 -24 312 -3 184 -3 364 -1 401 l3 66 30 -34 c28 -32 34 -34 92 -34 36
0 67 5 74 12 10 10 17 10 32 0 16 -10 142 -12 544 -11 l524 1 11 77 c5 42 10
165 10 273 l0 197 -47 41 -47 40 -530 -2 c-291 -1 -535 -6 -542 -10 -7 -6 -28
-4 -53 3 -39 12 -42 11 -70 -16 l-30 -29 0 258 0 257 22 -15 c20 -14 101 -16
683 -16 l660 1 28 24 27 24 0 263 0 263 -34 28 -35 27 -650 0 -649 0 -30 -25
-29 -24 -23 24 c-23 25 -25 25 -205 25 -124 0 -185 -4 -193 -12 -7 -7 -15 -8
-24 -1 -7 5 -67 10 -134 12 -112 2 -121 0 -139 -19z"/>
<path d="M23567 6490 l-27 -39 506 -1388 c278 -763 511 -1400 516 -1415 l10
-28 126 0 c123 0 127 1 154 27 l28 27 28 -27 c29 -27 29 -28 157 -25 l129 3
177 489 c98 269 180 490 181 491 2 2 84 -219 183 -491 l180 -494 124 0 c122 0
126 1 153 27 l28 27 28 -27 c28 -26 31 -27 158 -27 l129 0 513 1408 c281 774
512 1411 512 1416 0 5 -11 24 -26 43 l-25 33 -324 0 -323 0 -16 -42 c-9 -24
-153 -417 -319 -874 l-303 -831 -78 216 c-43 119 -117 321 -164 449 l-85 232
-345 -2 -345 -3 -161 -442 c-89 -243 -163 -439 -166 -436 -3 2 -147 394 -321
871 l-316 867 -324 2 -324 3 -28 -40z"/>
<path d="M29145 6519 c-129 -9 -274 -39 -394 -81 -290 -102 -455 -260 -533
-508 -21 -68 -23 -93 -23 -265 0 -182 2 -193 28 -270 103 -294 352 -477 768
-565 57 -12 138 -32 179 -45 131 -40 150 -40 190 -3 27 25 44 33 70 32 28 -1
34 -5 32 -19 -13 -69 58 -112 189 -114 33 -1 36 -3 32 -26 -4 -17 5 -37 32
-70 36 -43 37 -48 32 -100 -3 -30 -13 -69 -21 -87 -9 -17 -16 -43 -16 -57 0
-46 -13 -55 -73 -52 -30 1 -58 -2 -61 -7 -3 -5 -23 -13 -43 -16 -91 -16 -179
-40 -192 -52 -11 -10 -18 -9 -40 7 -16 12 -56 23 -106 29 -99 13 -240 76 -288
129 -46 52 -87 164 -87 240 0 19 -8 34 -24 44 -25 17 -9 17 -518 -9 l-136 -7
-22 -30 c-26 -34 -25 -68 9 -247 30 -161 94 -297 193 -410 53 -61 139 -130
160 -130 10 0 18 -6 18 -13 0 -16 113 -78 206 -113 65 -24 232 -63 299 -69 17
-1 44 -6 60 -10 24 -5 35 -2 49 14 24 26 38 26 61 1 25 -27 86 -27 110 0 l18
20 23 -21 c23 -22 26 -22 166 -11 166 14 239 30 274 63 20 19 36 23 92 24 59
1 77 6 147 43 104 56 246 161 265 198 8 16 27 39 41 51 52 44 127 222 148 348
16 102 22 185 14 198 -4 6 -6 38 -4 69 5 102 -14 160 -76 233 -51 59 -55 68
-44 88 25 47 -16 105 -159 223 -69 57 -118 88 -183 116 -115 50 -313 109 -512
154 -401 90 -470 113 -540 178 -33 32 -35 37 -35 100 0 77 12 102 77 151 38
29 54 34 126 40 45 4 104 13 131 20 29 8 56 9 65 5 9 -5 52 -16 96 -25 103
-22 188 -60 224 -101 34 -39 68 -124 86 -217 7 -38 15 -71 18 -74 3 -2 71 2
152 11 81 9 150 14 154 12 4 -3 90 5 192 18 l184 22 -2 75 c-1 82 -48 279 -82
350 -109 227 -285 372 -564 463 -99 32 -169 45 -297 55 -95 7 -107 6 -129 -11
-24 -18 -25 -18 -46 2 -12 11 -28 19 -36 19 -8 -1 -63 -5 -124 -10z"/>
</g>
</svg>
