<?xml version="1.0" standalone="no"?>
<!DOCTYPE svg PUBLIC "-//W3C//DTD SVG 20010904//EN"
 "http://www.w3.org/TR/2001/REC-SVG-20010904/DTD/svg10.dtd">
<svg version="1.0" xmlns="http://www.w3.org/2000/svg"
viewBox="0 0 4724.000000 1028.000000"
 preserveAspectRatio="xMidYMid meet">
<g transform="translate(0.000000,1028.000000) scale(0.100000,-0.100000)"
fill="#000000" stroke="none">
<path d="M14177 6490 l-27 -39 506 -1388 c278 -763 511 -1400 516 -1415 l10
-28 126 0 c123 0 127 1 154 27 l28 27 28 -27 c29 -27 29 -28 157 -25 l129 3
177 489 c98 269 180 490 181 491 2 2 84 -219 183 -491 l180 -494 124 0 c122 0
126 1 153 27 l28 27 28 -27 c28 -26 31 -27 158 -27 l129 0 513 1408 c281 774
512 1411 512 1416 0 5 -11 24 -26 43 l-25 33 -324 0 -323 0 -16 -42 c-9 -24
-153 -417 -319 -874 l-303 -831 -78 216 c-43 119 -117 321 -164 449 l-85 232
-345 -2 -345 -3 -161 -442 c-89 -243 -163 -439 -166 -436 -3 2 -147 394 -321
871 l-316 867 -324 2 -324 3 -28 -40z"/>
<path d="M18735 6510 c-18 -19 -20 -40 -22 -173 l-3 -152 46 -46 46 -46 -42
-29 c-39 -28 -41 -31 -37 -72 3 -23 1 -44 -3 -47 -4 -2 -8 -83 -9 -179 -1
-144 2 -176 14 -186 14 -12 14 -15 0 -30 -14 -15 -15 -111 -12 -856 3 -475 8
-862 14 -892 7 -41 6 -55 -4 -63 -26 -22 -15 -73 22 -109 l35 -34 31 30 c27
26 36 29 85 26 46 -3 60 0 79 18 22 20 26 21 86 9 35 -6 72 -19 81 -27 12 -10
30 -13 56 -10 24 4 45 0 57 -8 10 -8 40 -14 65 -14 41 0 50 4 93 48 l47 48 -1
534 c0 659 0 670 10 645 5 -11 17 -28 28 -37 18 -16 57 -17 514 -15 l494 2 30
23 c17 13 33 36 36 50 5 20 7 13 8 -25 0 -29 6 -63 12 -77 9 -19 9 -29 1 -39
-15 -18 -17 -823 -2 -832 7 -4 7 -12 0 -25 -5 -10 -10 -46 -10 -79 0 -33 5
-63 10 -66 7 -4 7 -12 0 -25 -29 -54 14 -130 75 -130 17 0 36 5 42 11 8 8 13
8 17 0 9 -15 129 -14 144 1 8 8 15 8 27 -2 10 -9 31 -11 68 -6 28 4 57 6 62 5
6 0 63 -3 129 -6 119 -4 119 -4 147 23 25 24 29 35 29 84 0 31 -5 61 -12 68
-8 8 -8 15 0 25 15 18 17 949 2 977 -7 13 -7 21 0 25 7 4 10 291 10 834 l0
828 -23 21 c-23 22 -28 22 -353 22 l-331 0 -21 -23 -22 -23 0 -549 0 -549 -43
42 -44 43 -447 -3 c-246 -1 -449 -6 -452 -9 -2 -4 -20 -2 -39 4 -32 10 -38 8
-65 -18 l-30 -29 0 530 0 530 -28 27 -28 27 -180 0 c-123 0 -184 -4 -192 -12
-7 -7 -15 -8 -24 -1 -7 5 -67 10 -134 12 -112 2 -121 0 -139 -19z"/>
<path d="M22795 6518 c-46 -123 -396 -1137 -465 -1343 -51 -154 -96 -284 -100
-290 -5 -5 -20 -50 -35 -100 -15 -49 -32 -96 -37 -105 -10 -18 -148 -429 -148
-443 0 -5 -8 -15 -17 -22 -15 -11 -18 -41 -20 -276 l-4 -262 27 -28 27 -28
308 1 308 1 15 51 c38 131 59 212 58 226 0 8 9 38 20 67 11 29 37 107 57 174
l38 121 20 -26 21 -26 371 0 370 0 31 -97 c17 -54 56 -187 87 -295 l56 -198
383 0 383 0 27 36 28 36 -27 81 c-15 45 -240 683 -500 1417 l-472 1335 -403 3
c-317 2 -404 0 -407 -10z m546 -1426 c38 -127 69 -234 69 -237 0 -3 -93 -5
-206 -5 -189 0 -206 1 -200 17 10 25 182 633 191 673 7 32 11 26 42 -90 19
-69 65 -230 104 -358z"/>
<path d="M25220 6515 c-19 -23 -3 -209 20 -230 16 -15 17 -22 5 -70 -7 -30
-17 -60 -23 -67 -9 -12 -16 -49 -28 -164 -6 -51 -6 -51 43 -93 l48 -42 125 2
c322 4 534 -1 522 -13 -7 -7 -12 -26 -12 -43 0 -17 5 -36 12 -43 9 -9 9 -15 0
-24 -15 -15 -16 -112 -1 -139 7 -15 7 -24 0 -33 -16 -19 -14 -792 2 -817 9
-15 9 -24 -1 -39 -9 -15 -12 -139 -12 -517 l0 -497 27 -28 27 -28 326 0 327 0
21 23 22 23 0 994 c0 724 -4 997 -12 1007 -8 10 -8 17 0 25 7 7 12 37 12 68 0
46 -4 61 -23 78 -13 12 -33 22 -46 22 -12 0 -19 4 -16 10 8 12 54 2 76 -16 12
-11 80 -14 340 -14 l325 0 27 28 27 28 0 297 0 296 -37 12 c-21 6 -94 13 -161
16 -104 4 -127 2 -141 -12 -16 -14 -20 -14 -31 -1 -10 14 -94 16 -639 16 -363
0 -632 -4 -641 -10 -8 -5 -19 -5 -25 0 -13 11 -275 6 -338 -7 -37 -8 -50 -7
-58 4 -15 17 -73 17 -89 -2z"/>
<path d="M28078 6488 l-26 -42 27 -55 28 -54 -34 -30 -33 -29 0 -350 c0 -340
1 -351 21 -380 l21 -29 -21 -23 c-18 -19 -21 -34 -21 -113 0 -68 4 -94 15
-103 13 -11 13 -15 0 -41 -13 -24 -15 -140 -15 -802 0 -754 1 -774 19 -791 18
-17 47 -18 343 -17 315 2 323 3 346 23 l22 22 -2 781 c-3 869 -9 807 62 680
19 -33 77 -130 131 -216 53 -86 163 -268 244 -405 215 -364 386 -647 400 -663
11 -11 21 -11 64 0 l51 13 0 518 0 519 -147 246 c-82 135 -156 260 -166 277
-10 17 -36 49 -57 71 -29 29 -42 54 -50 93 -10 42 -19 59 -51 84 -26 21 -39
39 -39 56 0 29 -54 122 -122 209 -26 35 -48 68 -48 74 0 18 -146 274 -229 401
l-76 118 -315 0 -315 0 -27 -42z"/>
<path d="M30647 6433 c-84 -129 -168 -272 -211 -362 -19 -40 -52 -95 -74 -124
-55 -70 -122 -187 -122 -211 0 -10 -18 -35 -39 -55 -25 -23 -43 -51 -50 -78
-7 -24 -34 -72 -61 -108 -28 -37 -50 -70 -50 -75 0 -5 -6 -15 -13 -22 -7 -7
-77 -120 -155 -252 l-142 -238 0 -518 0 -518 52 -16 c40 -12 54 -12 60 -3 29
43 239 392 363 602 81 138 201 336 265 440 65 105 132 216 150 248 17 31 34
57 38 57 6 0 -7 -1114 -17 -1362 -6 -157 -5 -168 14 -192 l20 -24 327 -1 327
-1 30 26 31 25 0 1292 0 1291 -31 32 -31 32 35 68 34 69 -25 38 -25 37 -318 0
-318 0 -64 -97z"/>
<path d="M32091 6496 c-12 -18 -21 -39 -21 -46 0 -7 122 -292 272 -632 l272
-620 57 4 56 3 -17 -40 c-10 -22 -158 -358 -329 -748 -171 -389 -311 -712
-311 -717 0 -6 10 -26 23 -45 l22 -35 376 0 375 0 288 658 c159 361 297 666
308 678 10 11 20 34 22 50 2 17 144 349 315 738 l312 709 -26 39 -25 38 -377
-2 -376 -3 -106 -242 c-58 -133 -109 -244 -112 -247 -3 -3 -55 106 -115 244
l-109 250 -377 0 -376 0 -21 -34z"/>
</g>
</svg>
